<?xml version="1.0" encoding="UTF-8"?>
<svg version="1.1" xmlns="http://www.w3.org/2000/svg" width="256" height="256">
<path d="M0 0 C0.58265625 0.53625 1.1653125 1.0725 1.765625 1.625 C4.86425774 3.53185091 7.31946313 3.37295999 10.9375 3.4375 C24.09718954 3.99953677 35.42187899 7.94055306 44.5625 17.75 C47.6133073 22.52517664 47.25320919 27.21298182 47.3125 32.6875 C47.34150391 33.56083984 47.37050781 34.43417969 47.40039062 35.33398438 C47.46172377 41.651298 46.21296659 45.55633471 43 51 C46.63 52.65 50.26 54.3 54 56 C54 62.93 54 69.86 54 77 C44.8203125 80.22265625 44.8203125 80.22265625 42 81 C41.34 80.67 40.68 80.34 40 80 C39.67 80.66 39.34 81.32 39 82 C36.55980404 82.71435011 34.16445108 83.32064819 31.6875 83.875 C25.48401063 85.33550327 19.47360817 87.05743624 13.453125 89.16796875 C11.29895953 89.89860131 9.23860424 90.59607793 7 91 C6.34 90.67 5.68 90.34 5 90 C4.67 90.66 4.34 91.32 4 92 C2.1640625 92.640625 2.1640625 92.640625 -0.375 93.25 C-6.89256636 94.90306835 -13.25021481 96.97560545 -19.62451172 99.10644531 C-20.42002441 99.36522461 -21.21553711 99.62400391 -22.03515625 99.890625 C-22.7506665 100.12813477 -23.46617676 100.36564453 -24.20336914 100.61035156 C-26 101 -26 101 -28 100 C-28.33 100.66 -28.66 101.32 -29 102 C-31.046875 102.7109375 -31.046875 102.7109375 -33.75 103.375 C-38.02339066 104.46960718 -42.23103314 105.6705738 -46.4375 107 C-50.41768292 108.24148229 -54.37868929 109.36194519 -58.4375 110.3125 C-64.29117298 111.72171757 -69.96730127 113.57318227 -75.6875 115.4375 C-85.04616465 118.46905727 -94.37758565 120.97317237 -104 123 C-105.04027344 123.26039063 -106.08054687 123.52078125 -107.15234375 123.7890625 C-115.85544348 125.72827667 -123.51351448 124.00627946 -132 122 C-133.55325691 121.64527015 -135.1066448 121.29111341 -136.66015625 120.9375 C-142.12044167 119.68100898 -147.56751616 118.37212221 -153 117 C-153 116.34 -153 115.68 -153 115 C-153.99 115.33 -154.98 115.66 -156 116 C-156 115.34 -156 114.68 -156 114 C-156.56090332 113.90783203 -157.12180664 113.81566406 -157.69970703 113.72070312 C-165.33666576 112.34136079 -172.53822809 109.9960974 -179.875 107.5 C-181.68871094 106.89478516 -181.68871094 106.89478516 -183.5390625 106.27734375 C-196.35917353 101.9612397 -196.35917353 101.9612397 -199 98 C-199.265625 95.37109375 -199.265625 95.37109375 -199.25 92.4375 C-199.25515625 91.46683594 -199.2603125 90.49617188 -199.265625 89.49609375 C-199 87 -199 87 -197 85 C-197.41015778 80.34375005 -197.41015778 80.34375005 -199 76 C-200.06912167 68.61534516 -199.61533394 62.99373905 -195.5625 56.625 C-183.58277009 40.87962097 -164.56105229 37.58429815 -146.33935547 32.30859375 C-145.41010254 32.0353125 -144.48084961 31.76203125 -143.5234375 31.48046875 C-142.284729 31.12311646 -142.284729 31.12311646 -141.02099609 30.75854492 C-138.81305901 30.08875088 -138.81305901 30.08875088 -137 28 C-136.690625 26.845 -136.38125 25.69 -136.0625 24.5 C-135 21 -135 21 -132 19 C-131.0409375 18.71511719 -130.081875 18.43023437 -129.09375 18.13671875 C-125.63361306 16.86538055 -124.05839206 15.42944681 -121.5 12.8125 C-109.19107846 1.48393504 -93.9073588 -1.62751127 -78 -5 C-77.02208496 -5.21317871 -76.04416992 -5.42635742 -75.03662109 -5.64599609 C-52.78001824 -10.37163613 -19.28535178 -15.57475245 0 0 Z " fill="#A0AAB4" transform="translate(202,100)"/>
<path d="M0 0 C0.58265625 0.53625 1.1653125 1.0725 1.765625 1.625 C4.86425774 3.53185091 7.31946313 3.37295999 10.9375 3.4375 C24.09718954 3.99953677 35.42187899 7.94055306 44.5625 17.75 C47.6133073 22.52517664 47.25320919 27.21298182 47.3125 32.6875 C47.34150391 33.56083984 47.37050781 34.43417969 47.40039062 35.33398438 C47.45845513 41.31462795 46.59105823 46.08739597 43 51 C40 53 40 53 37.8125 52.625 C37.214375 52.41875 36.61625 52.2125 36 52 C35.96132813 51.02160156 35.96132813 51.02160156 35.921875 50.0234375 C35.5578455 44.41407386 35.15736183 40.15736183 31 36 C26.81761204 35.22548371 24.67033351 35.66483324 20.875 37.5625 C14.10574303 43.30165265 11.74898767 49.8014082 9.328125 58.03515625 C8.98007812 59.12376953 8.98007812 59.12376953 8.625 60.234375 C8.33496094 61.21229004 8.33496094 61.21229004 8.0390625 62.20996094 C5.69488675 66.2483765 0.94967212 67.5077586 -3.2890625 68.83203125 C-4.30315186 69.15252441 -5.31724121 69.47301758 -6.36206055 69.80322266 C-7.43883057 70.13628418 -8.51560059 70.4693457 -9.625 70.8125 C-11.30299683 71.3391626 -11.30299683 71.3391626 -13.01489258 71.87646484 C-15.28377906 72.58841851 -17.55338751 73.29807571 -19.82373047 74.00537109 C-22.58671541 74.87058252 -25.34363745 75.75129101 -28.09765625 76.64453125 C-37.2602951 79.60744457 -46.47095323 82.26094947 -55.77636719 84.73950195 C-62.84115638 86.63699179 -69.80953388 88.76723659 -76.74804688 91.08398438 C-81.17861868 92.53708523 -85.36279492 93.48068191 -90 94 C-90 92.35 -90 90.7 -90 89 C-89.34 89 -88.68 89 -88 89 C-86.24775646 80.2387823 -86.34565396 73.73627788 -91 66 C-93.04549127 63.9541395 -93.04549127 63.9541395 -95 63 C-95 63.66 -95 64.32 -95 65 C-95.72445312 64.98839844 -96.44890625 64.97679687 -97.1953125 64.96484375 C-102.26432113 64.917533 -107.0094305 65.0018861 -112 66 C-112.99 66 -113.98 66 -115 66 C-117.48120567 67.8155213 -117.48120567 67.8155213 -120 70.1875 C-120.86625 70.96480469 -121.7325 71.74210937 -122.625 72.54296875 C-125.09666163 74.86557923 -125.09666163 74.86557923 -126.42578125 77.75 C-128 80 -128 80 -130.91796875 80.70703125 C-131.99691406 80.74183594 -133.07585937 80.77664062 -134.1875 80.8125 C-135.81751953 80.88404297 -135.81751953 80.88404297 -137.48046875 80.95703125 C-138.31191406 80.97121094 -139.14335937 80.98539062 -140 81 C-140.66 80.01 -141.32 79.02 -142 78 C-140.02 77.01 -140.02 77.01 -138 76 C-139.04800781 76.09539062 -140.09601563 76.19078125 -141.17578125 76.2890625 C-142.55464022 76.40162242 -143.93354929 76.51356964 -145.3125 76.625 C-146.34793945 76.72167969 -146.34793945 76.72167969 -147.40429688 76.8203125 C-151.2559972 77.11802847 -152.68854416 77.20763723 -156 75 C-155.75 73.125 -155.75 73.125 -155 71 C-152.02602316 69.08815774 -149.74458497 68.77221809 -146.25 68.875 C-145.45078125 68.89304687 -144.6515625 68.91109375 -143.828125 68.9296875 C-143.22484375 68.95289063 -142.6215625 68.97609375 -142 69 C-141.67 68.34 -141.34 67.68 -141 67 C-138.69160455 66.49786706 -136.4297353 66.10290199 -134.09765625 65.75 C-125.36124184 64.26771615 -117.16202629 61.68922644 -108.79663086 58.81152344 C-106.41158841 57.99108661 -104.02185058 57.18573007 -101.63085938 56.3828125 C-100.08565094 55.86022155 -98.54071836 55.33681404 -96.99609375 54.8125 C-96.29495956 54.57490967 -95.59382538 54.33731934 -94.8714447 54.0925293 C-91.61709133 52.97133072 -88.56238301 51.79413316 -85.43774414 50.32421875 C-82 49 -82 49 -75 49 C-75 60.55 -75 72.1 -75 84 C-69.72 82.35 -64.44 80.7 -59 79 C-54.62822463 77.75643845 -50.25461595 76.5272507 -45.875 75.3125 C-35.32359895 72.34291788 -24.89538879 69.0959941 -14.5 65.625 C-13.84771423 65.40808502 -13.19542847 65.19117004 -12.52337646 64.96768188 C-4.46353156 62.63527275 -4.46353156 62.63527275 3 59 C4.09224265 56.9154606 4.09224265 56.9154606 4.703125 54.4296875 C4.9609375 53.53378906 5.21875 52.63789063 5.484375 51.71484375 C5.86335938 50.30912109 5.86335938 50.30912109 6.25 48.875 C6.6521875 47.45767578 6.6521875 47.45767578 7.0625 46.01171875 C7.72252549 43.67805719 8.36763285 41.34127918 9 39 C8.56856689 40.04982056 8.56856689 40.04982056 8.12841797 41.12084961 C7.44238281 42.79020182 6.75634766 44.45955404 6.0703125 46.12890625 C4.88642569 49.05401571 4.88642569 49.05401571 4.34667969 52.5 C3 56 3 56 0.08251953 57.71264648 C-1.13838379 58.09493408 -2.35928711 58.47722168 -3.6171875 58.87109375 C-4.27075226 59.08314957 -4.92431702 59.29520538 -5.59768677 59.51368713 C-7.68263026 60.18213672 -9.77763729 60.80925439 -11.875 61.4375 C-13.27814401 61.88486752 -14.68050071 62.33471246 -16.08203125 62.78710938 C-26.22206359 66 -26.22206359 66 -31 66 C-31 56.1 -31 46.2 -31 36 C-26.1925149 33.59625745 -21.99060761 32.053192 -16.875 30.75 C-8.89024575 28.63742293 -1.13742185 26.05061561 6.62548828 23.23535156 C7.42970215 22.94499023 8.23391602 22.65462891 9.0625 22.35546875 C9.77535156 22.09403076 10.48820313 21.83259277 11.22265625 21.56323242 C13 21 13 21 15 21 C9.53553688 13.64622783 3.76058322 6.46840934 -5 3 C-13.77308885 2.71480671 -22.51972766 5.04953736 -31 7 C-31 16.24 -31 25.48 -31 35 C-31.99 35.33 -32.98 35.66 -34 36 C-34 26.76 -34 17.52 -34 8 C-38.3823183 9.50202469 -38.3823183 9.50202469 -42.76342773 11.00756836 C-46.20460447 12.16308619 -49.60913691 13.18065406 -53.16015625 13.94140625 C-61.18586705 15.37324607 -61.18586705 15.37324607 -67.1875 20.375 C-70.19591103 26.84430664 -73 34.84267757 -73 42 C-72.01 39.03 -72.01 39.03 -71 36 C-67.7 36 -64.4 36 -61 36 C-60.67 37.32 -60.34 38.64 -60 40 C-61.625 42.25 -61.625 42.25 -64 44 C-66.75 44.25 -66.75 44.25 -69 44 C-69 44.66 -69 45.32 -69 46 C-72.3 46 -75.6 46 -79 46 C-79 46.66 -79 47.32 -79 48 C-79.66 48 -80.32 48 -81 48 C-79.31645207 40.20251485 -76.95989677 32.85068717 -74.06982422 25.43359375 C-72.85325141 22.30947825 -71.76565336 19.26273755 -71 16 C-72.07145264 16.24907104 -72.07145264 16.24907104 -73.16455078 16.50317383 C-101.03891051 22.9766537 -101.03891051 22.9766537 -111 25 C-111.67804688 25.14066895 -112.35609375 25.28133789 -113.0546875 25.42626953 C-115.24291507 25.87744546 -117.43342883 26.31538358 -119.625 26.75 C-120.30127441 26.89010498 -120.97754883 27.03020996 -121.67431641 27.17456055 C-126.16932668 28.04292775 -128.94522562 28.02738719 -133 26 C-132.67 26.99 -132.34 27.98 -132 29 C-132.99 29 -133.98 29 -135 29 C-135 30.32 -135 31.64 -135 33 C-124.53725859 38.73224662 -114.70670559 42.70559614 -103 45 C-102.25492187 45.14808105 -101.50984375 45.29616211 -100.7421875 45.44873047 C-96.16975342 46.34868624 -91.58993455 47.19432 -87 48 C-87 48.66 -87 49.32 -87 50 C-150.64332517 72.11600348 -150.64332517 72.11600348 -174.91015625 61.7578125 C-177.02761112 60.59407308 -179.01883919 59.37998098 -181 58 C-181.99 57.34 -182.98 56.68 -184 56 C-185.65 57.32 -187.3 58.64 -189 60 C-189.19030619 58.27516138 -189.32540966 56.5441814 -189.4375 54.8125 C-189.51871094 53.84957031 -189.59992188 52.88664062 -189.68359375 51.89453125 C-188.82820698 48.27257929 -187.18360439 47.07609223 -184.09790039 45.11889648 C-180.52395302 43.2127635 -176.84157755 41.88745236 -173 40.625 C-172.15002441 40.33536377 -171.30004883 40.04572754 -170.42431641 39.74731445 C-162.45943575 37.06808718 -154.41146494 34.64512555 -146.33984375 32.30908203 C-145.41042969 32.03563965 -144.48101562 31.76219727 -143.5234375 31.48046875 C-142.284729 31.12311646 -142.284729 31.12311646 -141.02099609 30.75854492 C-138.81305901 30.08875088 -138.81305901 30.08875088 -137 28 C-136.690625 26.845 -136.38125 25.69 -136.0625 24.5 C-135 21 -135 21 -132 19 C-131.0409375 18.71511719 -130.081875 18.43023437 -129.09375 18.13671875 C-125.63361306 16.86538055 -124.05839206 15.42944681 -121.5 12.8125 C-109.19107846 1.48393504 -93.9073588 -1.62751127 -78 -5 C-77.02208496 -5.21317871 -76.04416992 -5.42635742 -75.03662109 -5.64599609 C-52.78001824 -10.37163613 -19.28535178 -15.57475245 0 0 Z " fill="#CFD3D8" transform="translate(202,100)"/>
<path d="M0 0 C3.84886099 3.84886099 5.08673028 6.823566 5.5625 12.125 C5.64628906 13.03507813 5.73007813 13.94515625 5.81640625 14.8828125 C5.87699219 15.58148438 5.93757812 16.28015625 6 17 C7.7015625 16.87625 7.7015625 16.87625 9.4375 16.75 C14 17 14 17 23 21 C23 27.93 23 34.86 23 42 C13.8203125 45.22265625 13.8203125 45.22265625 11 46 C10.34 45.67 9.68 45.34 9 45 C8.67 45.66 8.34 46.32 8 47 C5.55980404 47.71435011 3.16445108 48.32064819 0.6875 48.875 C-5.51598937 50.33550327 -11.52639183 52.05743624 -17.546875 54.16796875 C-19.70104047 54.89860131 -21.76139576 55.59607793 -24 56 C-24.66 55.67 -25.32 55.34 -26 55 C-26.33 55.66 -26.66 56.32 -27 57 C-28.8359375 57.640625 -28.8359375 57.640625 -31.375 58.25 C-37.89256636 59.90306835 -44.25021481 61.97560545 -50.62451172 64.10644531 C-51.42002441 64.36522461 -52.21553711 64.62400391 -53.03515625 64.890625 C-53.7506665 65.12813477 -54.46617676 65.36564453 -55.20336914 65.61035156 C-57 66 -57 66 -59 65 C-59.33 65.66 -59.66 66.32 -60 67 C-62.046875 67.7109375 -62.046875 67.7109375 -64.75 68.375 C-69.02339066 69.46960718 -73.23103314 70.6705738 -77.4375 72 C-81.41768292 73.24148229 -85.37868929 74.36194519 -89.4375 75.3125 C-95.29117298 76.72171757 -100.96730127 78.57318227 -106.6875 80.4375 C-116.04616465 83.46905727 -125.37758565 85.97317237 -135 88 C-136.04027344 88.26039063 -137.08054687 88.52078125 -138.15234375 88.7890625 C-146.85544348 90.72827667 -154.51351448 89.00627946 -163 87 C-164.55325691 86.64527015 -166.1066448 86.29111341 -167.66015625 85.9375 C-173.12044167 84.68100898 -178.56751616 83.37212221 -184 82 C-184 81.34 -184 80.68 -184 80 C-184.99 80.33 -185.98 80.66 -187 81 C-187 80.34 -187 79.68 -187 79 C-187.56090332 78.90783203 -188.12180664 78.81566406 -188.69970703 78.72070312 C-196.33666576 77.34136079 -203.53822809 74.9960974 -210.875 72.5 C-212.68871094 71.89478516 -212.68871094 71.89478516 -214.5390625 71.27734375 C-227.35917353 66.9612397 -227.35917353 66.9612397 -230 63 C-230.3359375 60.40625 -230.3359375 60.40625 -230.375 57.5 C-230.40335938 56.5409375 -230.43171875 55.581875 -230.4609375 54.59375 C-230 52 -230 52 -227.9765625 50.15625 C-227.32429687 49.7746875 -226.67203125 49.393125 -226 49 C-225.48824219 49.7425 -224.97648438 50.485 -224.44921875 51.25 C-221.60400517 54.44462577 -218.60428123 56.17246916 -214.8125 58 C-214.11342529 58.3417627 -213.41435059 58.68352539 -212.6940918 59.03564453 C-199.94039189 65.04990738 -185.85629962 68.71046616 -171.74609375 69.16015625 C-170.65760132 69.20124512 -170.65760132 69.20124512 -169.54711914 69.24316406 C-168.12889629 69.28843497 -166.7097128 69.3109414 -165.29077148 69.30761719 C-163.3359375 69.36328125 -163.3359375 69.36328125 -160 70 C-158.28515625 72.3984375 -158.28515625 72.3984375 -157 75 C-150.86281392 79.54751156 -143.35240481 79.99782637 -136 79 C-130.02515276 76.50142752 -127.42833954 71.77303362 -125 66 C-124.12380384 62.99460176 -123.53990303 60.09217189 -123 57 C-122.67 57.99 -122.34 58.98 -122 60 C-121.01 59.34 -120.02 58.68 -119 58 C-117.53727781 57.5149702 -116.05460332 57.08840127 -114.5625 56.703125 C-113.67723633 56.46972412 -112.79197266 56.23632324 -111.87988281 55.99584961 C-110.45434082 55.62665405 -110.45434082 55.62665405 -109 55.25 C-101.69043315 53.31127686 -94.44557764 51.26461574 -87.25 48.9375 C-81.26186517 47.00365652 -75.26194274 45.20533311 -69.1875 43.5625 C-60.3880782 41.17422534 -51.70974299 38.45099922 -43.046875 35.609375 C-40.07334571 34.63883273 -37.11931033 33.74615312 -34.078125 33.015625 C-28.50944837 31.69650824 -28.50944837 31.69650824 -24.5390625 27.88671875 C-23.46212662 25.28344893 -22.70872561 22.72526534 -22 20 C-19.46608927 12.38680214 -16.176465 5.08363638 -9 0.80859375 C-5.82315209 -0.47579593 -3.37802317 -0.4222529 0 0 Z " fill="#050505" transform="translate(233,135)"/>
<path d="M0 0 C14.53985035 -0.72397595 26.55725083 1.20764735 38 11 C43.24661724 16.63051606 43.23309402 21.35568162 43.3125 28.6875 C43.34150391 29.56083984 43.37050781 30.43417969 43.40039062 31.33398438 C43.45845513 37.31462795 42.59105823 42.08739597 39 47 C36 49 36 49 33.8125 48.625 C33.214375 48.41875 32.61625 48.2125 32 48 C31.96132813 47.02160156 31.96132813 47.02160156 31.921875 46.0234375 C31.5578455 40.41407386 31.15736183 36.15736183 27 32 C22.81761204 31.22548371 20.67033351 31.66483324 16.875 33.5625 C10.10574303 39.30165265 7.74898767 45.8014082 5.328125 54.03515625 C4.98007812 55.12376953 4.98007812 55.12376953 4.625 56.234375 C4.43164062 56.88631836 4.23828125 57.53826172 4.0390625 58.20996094 C1.69488675 62.2483765 -3.05032788 63.5077586 -7.2890625 64.83203125 C-8.30315186 65.15252441 -9.31724121 65.47301758 -10.36206055 65.80322266 C-11.43883057 66.13628418 -12.51560059 66.4693457 -13.625 66.8125 C-15.30299683 67.3391626 -15.30299683 67.3391626 -17.01489258 67.87646484 C-19.28377906 68.58841851 -21.55338751 69.29807571 -23.82373047 70.00537109 C-26.58671541 70.87058252 -29.34363745 71.75129101 -32.09765625 72.64453125 C-41.2602951 75.60744457 -50.47095323 78.26094947 -59.77636719 80.73950195 C-66.84115638 82.63699179 -73.80953388 84.76723659 -80.74804688 87.08398438 C-85.17861868 88.53708523 -89.36279492 89.48068191 -94 90 C-94 88.35 -94 86.7 -94 85 C-93.34 85 -92.68 85 -92 85 C-90.24775646 76.2387823 -90.34565396 69.73627788 -95 62 C-97.04549127 59.9541395 -97.04549127 59.9541395 -99 59 C-99 59.66 -99 60.32 -99 61 C-99.72445312 60.98839844 -100.44890625 60.97679687 -101.1953125 60.96484375 C-106.26432113 60.917533 -111.0094305 61.0018861 -116 62 C-116.99 62 -117.98 62 -119 62 C-121.48120567 63.8155213 -121.48120567 63.8155213 -124 66.1875 C-124.86625 66.96480469 -125.7325 67.74210937 -126.625 68.54296875 C-129.09666163 70.86557923 -129.09666163 70.86557923 -130.42578125 73.75 C-132 76 -132 76 -134.91796875 76.70703125 C-135.99691406 76.74183594 -137.07585937 76.77664062 -138.1875 76.8125 C-139.81751953 76.88404297 -139.81751953 76.88404297 -141.48046875 76.95703125 C-142.31191406 76.97121094 -143.14335937 76.98539062 -144 77 C-144.66 76.01 -145.32 75.02 -146 74 C-144.02 73.01 -144.02 73.01 -142 72 C-143.04800781 72.09539062 -144.09601563 72.19078125 -145.17578125 72.2890625 C-146.55464022 72.40162242 -147.93354929 72.51356964 -149.3125 72.625 C-150.34793945 72.72167969 -150.34793945 72.72167969 -151.40429688 72.8203125 C-155.2559972 73.11802847 -156.68854416 73.20763723 -160 71 C-159.75 69.125 -159.75 69.125 -159 67 C-156.02602316 65.08815774 -153.74458497 64.77221809 -150.25 64.875 C-149.45078125 64.89304687 -148.6515625 64.91109375 -147.828125 64.9296875 C-147.22484375 64.95289063 -146.6215625 64.97609375 -146 65 C-145.67 64.34 -145.34 63.68 -145 63 C-142.69160455 62.49786706 -140.4297353 62.10290199 -138.09765625 61.75 C-129.36124184 60.26771615 -121.16202629 57.68922644 -112.79663086 54.81152344 C-110.41158841 53.99108661 -108.02185058 53.18573007 -105.63085938 52.3828125 C-104.08565094 51.86022155 -102.54071836 51.33681404 -100.99609375 50.8125 C-100.29495956 50.57490967 -99.59382538 50.33731934 -98.8714447 50.0925293 C-95.61709133 48.97133072 -92.56238301 47.79413316 -89.43774414 46.32421875 C-86 45 -86 45 -79 45 C-79 56.55 -79 68.1 -79 80 C-73.72 78.35 -68.44 76.7 -63 75 C-58.62822463 73.75643845 -54.25461595 72.5272507 -49.875 71.3125 C-39.32359895 68.34291788 -28.89538879 65.0959941 -18.5 61.625 C-17.84771423 61.40808502 -17.19542847 61.19117004 -16.52337646 60.96768188 C-8.46353156 58.63527275 -8.46353156 58.63527275 -1 55 C0.09224265 52.9154606 0.09224265 52.9154606 0.703125 50.4296875 C0.9609375 49.53378906 1.21875 48.63789063 1.484375 47.71484375 C1.86335938 46.30912109 1.86335938 46.30912109 2.25 44.875 C2.6521875 43.45767578 2.6521875 43.45767578 3.0625 42.01171875 C3.72252549 39.67805719 4.36763285 37.34127918 5 35 C4.56856689 36.04982056 4.56856689 36.04982056 4.12841797 37.12084961 C3.44238281 38.79020182 2.75634766 40.45955404 2.0703125 42.12890625 C0.88642569 45.05401571 0.88642569 45.05401571 0.34667969 48.5 C-1 52 -1 52 -3.91748047 53.71264648 C-5.13838379 54.09493408 -6.35928711 54.47722168 -7.6171875 54.87109375 C-8.27075226 55.08314957 -8.92431702 55.29520538 -9.59768677 55.51368713 C-11.68263026 56.18213672 -13.77763729 56.80925439 -15.875 57.4375 C-17.27814401 57.88486752 -18.68050071 58.33471246 -20.08203125 58.78710938 C-30.22206359 62 -30.22206359 62 -35 62 C-35 52.1 -35 42.2 -35 32 C-30.21862684 29.60931342 -26.08373917 28.09421504 -21 26.8125 C-12.49879483 24.5768051 -4.30953635 21.68524864 3.9140625 18.59106445 C4.80867187 18.25550537 5.70328125 17.91994629 6.625 17.57421875 C7.42164063 17.27088623 8.21828125 16.96755371 9.0390625 16.6550293 C11 16 11 16 13 16 C10.78604515 11.91043556 8.15325917 8.97024116 4.8125 5.75 C3.19228295 4.18309482 1.58335288 2.60414738 0 1 C0 0.67 0 0.34 0 0 Z " fill="#96A0AC" transform="translate(206,104)"/>
<path d="M0 0 C-0.86238281 0.63421875 -0.86238281 0.63421875 -1.7421875 1.28125 C-3.93926191 2.95376339 -6.03888111 4.69150149 -8.125 6.5 C-8.80820313 7.0878125 -9.49140625 7.675625 -10.1953125 8.28125 C-12.20474992 10.06882696 -12.20474992 10.06882696 -14 13 C-13.51644043 12.70754395 -13.03288086 12.41508789 -12.53466797 12.11376953 C-10.3183949 10.77807161 -8.09679121 9.45149706 -5.875 8.125 C-4.73417969 7.43470703 -4.73417969 7.43470703 -3.5703125 6.73046875 C0.53543017 4.28825975 4.35908849 2.28996582 9 1 C9 1.99 9 2.98 9 4 C7.6427164 4.98403061 6.27140977 5.95321238 4.84375 6.83203125 C2.80776074 8.12177869 0.91544486 9.53763152 -1 11 C-3.40120538 12.8227123 -5.79235014 14.52325009 -8.3125 16.1875 C-10.95951248 17.78402234 -10.95951248 17.78402234 -12.375 19.6875 C-15.08584389 21.87702776 -18.57312574 22.14508943 -22 22 C-22.99 21.34 -23.98 20.68 -25 20 C-24.505 21.485 -24.505 21.485 -24 23 C-24.99 23 -25.98 23 -27 23 C-27 24.32 -27 25.64 -27 27 C-16.53725859 32.73224662 -6.70670559 36.70559614 5 39 C5.74507813 39.14808105 6.49015625 39.29616211 7.2578125 39.44873047 C11.83024658 40.34868624 16.41006545 41.19432 21 42 C21 42.66 21 43.32 21 44 C-42.64332517 66.11600348 -42.64332517 66.11600348 -66.91015625 55.7578125 C-69.02761112 54.59407308 -71.01883919 53.37998098 -73 52 C-73.99 51.34 -74.98 50.68 -76 50 C-77.65 51.32 -79.3 52.64 -81 54 C-81.19030619 52.27516138 -81.32540966 50.5441814 -81.4375 48.8125 C-81.51871094 47.84957031 -81.59992188 46.88664062 -81.68359375 45.89453125 C-80.82820698 42.27257929 -79.18360439 41.07609223 -76.09790039 39.11889648 C-72.52395302 37.2127635 -68.84157755 35.88745236 -65 34.625 C-64.15002441 34.33536377 -63.30004883 34.04572754 -62.42431641 33.74731445 C-54.45943575 31.06808718 -46.41146494 28.64512555 -38.33984375 26.30908203 C-37.41042969 26.03563965 -36.48101562 25.76219727 -35.5234375 25.48046875 C-34.284729 25.12311646 -34.284729 25.12311646 -33.02099609 24.75854492 C-30.81305901 24.08875088 -30.81305901 24.08875088 -29 22 C-28.690625 20.845 -28.38125 19.69 -28.0625 18.5 C-27 15 -27 15 -24 13 C-23.05253906 12.72027344 -22.10507813 12.44054687 -21.12890625 12.15234375 C-17.55484418 10.83605372 -15.66529253 9.19518725 -12.9375 6.5625 C-4.52200489 -1.50733496 -4.52200489 -1.50733496 0 0 Z " fill="#C7CCD3" transform="translate(94,106)"/>
<path d="M0 0 C14.59930166 -0.72693618 26.47086679 1.26330401 38 11 C40.53544996 13.35434639 41.85141487 14.63199203 42.2265625 18.0859375 C42.24732767 20.05862842 42.13344284 22.0317181 42 24 C37.67045219 25.99159199 33.8187163 27.67875225 29 28 C27.66666667 27.33333333 26.33333333 26.66666667 25 26 C20.88395181 25.62426116 16.96542938 25.77986788 13 27 C12.34 27 11.68 27 11 27 C6.18245124 31.36855807 3.99437554 35.41797185 3.24707031 41.8515625 C2.64011732 45.94131518 1.88708042 48.92218867 -1 52 C-10.58489653 57.27927608 -24.07879498 62 -35 62 C-35 52.1 -35 42.2 -35 32 C-30.21862684 29.60931342 -26.08373917 28.09421504 -21 26.8125 C-12.49879483 24.5768051 -4.30953635 21.68524864 3.9140625 18.59106445 C5.25597656 18.08772583 5.25597656 18.08772583 6.625 17.57421875 C7.42164063 17.27088623 8.21828125 16.96755371 9.0390625 16.6550293 C11 16 11 16 13 16 C10.78604515 11.91043556 8.15325917 8.97024116 4.8125 5.75 C3.19228295 4.18309482 1.58335288 2.60414738 0 1 C0 0.67 0 0.34 0 0 Z " fill="#AAB2BB" transform="translate(206,104)"/>
<path d="M0 0 C1.32 0 2.64 0 4 0 C4 10.23 4 20.46 4 31 C-1.35581208 32.57029045 -6.71221666 34.13812539 -12.07055664 35.69970703 C-13.89357 36.23179124 -15.71616459 36.76531236 -17.53833008 37.30029297 C-20.15597787 38.06855442 -22.77508302 38.83165326 -25.39453125 39.59375 C-26.21025101 39.83436157 -27.02597076 40.07497314 -27.8664093 40.32287598 C-30.99757707 41.22953669 -33.72232799 42 -37 42 C-37 31.11 -37 20.22 -37 9 C-32.68381685 7.27352674 -28.36615014 5.59337143 -24 4 C-22.84177734 3.57460937 -22.84177734 3.57460937 -21.66015625 3.140625 C-17.66971154 1.73301389 -14.29840101 0.58402571 -10 1 C-10 2.32 -10 3.64 -10 5 C-10.66 5 -11.32 5 -12 5 C-12 5.99 -12 6.98 -12 8 C-11.18595703 7.67515625 -11.18595703 7.67515625 -10.35546875 7.34375 C-9.64003906 7.0653125 -8.92460937 6.786875 -8.1875 6.5 C-7.12595703 6.08234375 -7.12595703 6.08234375 -6.04296875 5.65625 C-4 5 -4 5 -1 5 C-0.67 3.35 -0.34 1.7 0 0 Z " fill="#ADB5BE" transform="translate(165,140)"/>
<path d="M0 0 C3.94827616 2.12599485 6.51836267 3.73510001 8 8 C8.23541218 10.92179298 8.18814009 13.82127125 8.125 16.75 C8.11597656 17.54277344 8.10695312 18.33554688 8.09765625 19.15234375 C8.07417012 21.10169281 8.03830137 23.05088575 8 25 C7.34 25 6.68 25 6 25 C5.76925781 25.64066406 5.53851563 26.28132813 5.30078125 26.94140625 C2.43911725 34.53103685 -0.37760748 41.2274121 -8 45 C-15.56959508 46.17349868 -22.50812733 45.12116758 -29 41 C-30.74609375 39.61328125 -30.74609375 39.61328125 -32 38 C-32 36.68 -32 35.36 -32 34 C-31.34 34 -30.68 34 -30 34 C-29.938125 32.948125 -29.87625 31.89625 -29.8125 30.8125 C-28.54981334 21.07424534 -24.64926473 11.3770051 -17 5 C-11.67942516 1.64891972 -6.37588428 -0.62508669 0 0 Z " fill="#1F1F1F" transform="translate(105,170)"/>
<path d="M0 0 C0.99 0.495 0.99 0.495 2 1 C0.64009097 5.10122762 -0.74929503 9.19082281 -2.1640625 13.2734375 C-2.56367187 14.42714844 -2.96328125 15.58085937 -3.375 16.76953125 C-3.99375 18.55423828 -3.99375 18.55423828 -4.625 20.375 C-5.04523438 21.58800781 -5.46546875 22.80101562 -5.8984375 24.05078125 C-6.93198049 27.03396215 -7.96584485 30.01703127 -9 33 C-51.91988131 30.08011869 -51.91988131 30.08011869 -65 17 C-64.34 16.38125 -63.68 15.7625 -63 15.125 C-60.7715451 13.24362573 -60.7715451 13.24362573 -61 11 C-59.82630859 11.30164063 -59.82630859 11.30164063 -58.62890625 11.609375 C-53.8030452 12.12884336 -49.65947556 11.23307629 -44.9375 10.25 C-43.99793457 10.06244141 -43.05836914 9.87488281 -42.09033203 9.68164062 C-36.17236279 8.48765544 -30.2811074 7.19685316 -24.41015625 5.7890625 C-19.0503732 4.54888361 -13.65977749 3.45440375 -8.26904297 2.35742188 C-4.01734471 1.54297014 -4.01734471 1.54297014 0 0 Z " fill="#37434A" transform="translate(130,115)"/>
<path d="M0 0 C0.804375 0.5775 1.60875 1.155 2.4375 1.75 C5.96426928 4.84667546 9.17837221 8.24325061 12 12 C12 12.66 12 13.32 12 14 C0.88153614 18.21429541 -10.24782104 22.23841886 -21.6875 25.5 C-22.57719482 25.75475098 -23.46688965 26.00950195 -24.38354492 26.27197266 C-30.59148618 28 -30.59148618 28 -34 28 C-34 18.76 -34 9.52 -34 0 C-9.50480298 -7.23191531 -9.50480298 -7.23191531 0 0 Z " fill="#080909" transform="translate(205,107)"/>
<path d="M0 0 C0 9.57 0 19.14 0 29 C-3.3825 29.99 -6.765 30.98 -10.25 32 C-11.30993164 32.31324219 -12.36986328 32.62648437 -13.46191406 32.94921875 C-14.30463867 33.19285156 -15.14736328 33.43648437 -16.015625 33.6875 C-16.87446289 33.93886719 -17.73330078 34.19023437 -18.61816406 34.44921875 C-21 35 -21 35 -25 35 C-25 33.02 -25 31.04 -25 29 C-28.96 29 -32.92 29 -37 29 C-37.66 30.98 -38.32 32.96 -39 35 C-40.73056607 30.86586994 -39.17240316 27.2251081 -37.875 23.1875 C-37.67390625 22.50107422 -37.4728125 21.81464844 -37.265625 21.10742188 C-35.72307326 16.19634601 -33.91222156 11.48923202 -30 8 C-26.64877176 6.40267544 -23.22944011 5.53604528 -19.625 4.6875 C-18.70460937 4.44966797 -17.78421875 4.21183594 -16.8359375 3.96679688 C-15.04605697 3.5052634 -13.25344801 3.05415471 -11.45800781 2.61474609 C-9.27440455 2.06862839 -7.11919576 1.46967306 -4.9609375 0.83203125 C-2 0 -2 0 0 0 Z " fill="#1F262A" transform="translate(168,108)"/>
<path d="M0 0 C4.50913727 1.8658499 6.27662719 4.32482087 8.1875 8.75 C9.73998461 14.95993845 9.39400196 20.0149951 7 26 C6.67 26 6.34 26 6 26 C5.94392578 24.89591797 5.94392578 24.89591797 5.88671875 23.76953125 C5.54562425 16.33536689 5.54562425 16.33536689 2 10 C-2.4335719 7.27961299 -6.0827852 7.89828466 -11 9 C-17.15330694 11.05482482 -21.60651182 14.46275016 -25 20 C-27.64161782 25.73692069 -29.75716412 31.59622936 -31.1875 37.75 C-31.455625 38.8225 -31.72375 39.895 -32 41 C-43.15518166 46.57759083 -63.47301174 40.26535282 -74.59814453 36.64306641 C-78.08087924 35.46927371 -81.54357019 34.24916586 -85 33 C-84.0860144 32.77171509 -84.0860144 32.77171509 -83.15356445 32.53881836 C-81.61619966 32.15417216 -80.07939427 31.76728726 -78.54296875 31.37890625 C-75.779678 30.96717168 -74.00582372 31.25637846 -71.3125 31.9375 C-66.14823496 33.094606 -61.27122839 33.20187683 -56 33 C-56.66 32.34 -57.32 31.68 -58 31 C-58 29.68 -58 28.36 -58 27 C-57.34 27 -56.68 27 -56 27 C-55.67 27.99 -55.34 28.98 -55 30 C-53.35 30.33 -51.7 30.66 -50 31 C-50.66 31.99 -51.32 32.98 -52 34 C-50.41705218 34.05437607 -48.83355744 34.09296271 -47.25 34.125 C-45.92742188 34.15980469 -45.92742188 34.15980469 -44.578125 34.1953125 C-40.95591493 33.93937151 -40.95591493 33.93937151 -38 32 C-37.21158458 29.21701124 -36.66649159 26.71204274 -36.25 23.875 C-36.06244141 22.74384766 -36.06244141 22.74384766 -35.87109375 21.58984375 C-35.56489524 19.72909898 -35.28035912 17.86481296 -35 16 C-34.34 16 -33.68 16 -33 16 C-32.484375 15.175 -31.96875 14.35 -31.4375 13.5 C-28.14006082 8.26656434 -22.90312864 2.96770955 -17 1 C-16.505 1.495 -16.505 1.495 -16 2 C-15.319375 1.855625 -14.63875 1.71125 -13.9375 1.5625 C-9.20071105 0.65545531 -4.62483551 0.45838816 0 2 C0 1.34 0 0.68 0 0 Z " fill="#7F8E9B" transform="translate(107,163)"/>
<path d="M0 0 C-0.66 0 -1.32 0 -2 0 C-2 9.9 -2 19.8 -2 30 C0.20300781 29.278125 2.40601563 28.55625 4.67578125 27.8125 C6.81012318 27.11645568 8.94495198 26.42192485 11.07983398 25.72753906 C12.56342333 25.24409497 14.04650134 24.75907875 15.52905273 24.27246094 C17.65996993 23.57333176 19.79266126 22.87987457 21.92578125 22.1875 C22.58838455 21.96876221 23.25098785 21.75002441 23.93367004 21.5246582 C26.75405555 20.61452414 29.01399134 20 32 20 C32.09796875 19.38253906 32.1959375 18.76507813 32.296875 18.12890625 C33.3694433 12.05410132 34.86870322 6.36968471 38 1 C38.66 0.67 39.32 0.34 40 0 C39.5875 1.19625 39.175 2.3925 38.75 3.625 C37.72941948 6.59696827 36.8790084 9.51253384 36.15625 12.57421875 C35.8571875 13.80785156 35.558125 15.04148438 35.25 16.3125 C34.98703125 17.48425781 34.7240625 18.65601563 34.453125 19.86328125 C32.34533515 24.41316094 28.56837027 25.98473992 24.06967163 27.76304626 C22.00718033 28.47593706 19.93463436 29.13193891 17.84765625 29.76953125 C17.07846359 30.01153763 16.30927094 30.25354401 15.51676941 30.50288391 C13.03455409 31.2811902 10.54878665 32.04730931 8.0625 32.8125 C6.34655222 33.34643295 4.63073256 33.88077785 2.91503906 34.41552734 C-6.62130125 37.37927332 -16.17148122 40.30035496 -25.75 43.125 C-26.66257568 43.39546143 -27.57515137 43.66592285 -28.51538086 43.94458008 C-34.33986611 45.63025463 -40.01097133 46.80219427 -46 48 C-46 36.45 -46 24.9 -46 13 C-53.49910884 14.63469244 -53.49910884 14.63469244 -60.609375 16.953125 C-62.09715454 17.50697876 -62.09715454 17.50697876 -63.61499023 18.07202148 C-64.64954346 18.46075439 -65.68409668 18.8494873 -66.75 19.25 C-74.90965711 22.25096812 -83.07328177 25.06036538 -91.4375 27.4375 C-92.25766602 27.67178711 -93.07783203 27.90607422 -93.92285156 28.14746094 C-98.89753243 29.52603603 -103.86366551 30.5912093 -108.95336914 31.45727539 C-111.20612155 31.87129636 -111.20612155 31.87129636 -113 34 C-115.26117974 34.13968678 -117.44986778 33.9959937 -119.7109375 33.875 C-122.27466235 34.01499863 -123.8020655 34.71536249 -126 36 C-126 36.99 -126 37.98 -126 39 C-123.64341603 40.17829199 -122.47426764 40.04414372 -119.8671875 39.87890625 C-119.06152344 39.83056641 -118.25585938 39.78222656 -117.42578125 39.73242188 C-116.16314453 39.64831055 -116.16314453 39.64831055 -114.875 39.5625 C-114.02550781 39.51029297 -113.17601563 39.45808594 -112.30078125 39.40429688 C-110.20020876 39.27448622 -108.10005809 39.1378826 -106 39 C-108.67129667 41.67129667 -110.6660124 41.93641818 -114.38183594 42.11352539 C-115.67009277 42.10567017 -115.67009277 42.10567017 -116.984375 42.09765625 C-117.91894531 42.09443359 -118.85351562 42.09121094 -119.81640625 42.08789062 C-120.78449219 42.07951172 -121.75257812 42.07113281 -122.75 42.0625 C-124.22533203 42.05573242 -124.22533203 42.05573242 -125.73046875 42.04882812 C-128.15370791 42.03706483 -130.57682273 42.02062684 -133 42 C-133.33 40.68 -133.66 39.36 -134 38 C-129.375 34 -129.375 34 -126 34 C-126.33 33.34 -126.66 32.68 -127 32 C-129.52733235 31.34444881 -129.52733235 31.34444881 -132 31 C-132 30.67 -132 30.34 -132 30 C-130.93265625 29.97421875 -129.8653125 29.9484375 -128.765625 29.921875 C-108.70880304 29.25065068 -90.82802035 24.24383889 -71.98217773 17.70947266 C-70.92758362 17.34527725 -70.92758362 17.34527725 -69.85168457 16.97372437 C-67.91680407 16.30312879 -65.98456291 15.62493194 -64.05249023 14.94628906 C-61 14 -61 14 -58 14 C-58 13.34 -58 12.68 -58 12 C-59.32 11.67 -60.64 11.34 -62 11 C-53.42857143 10.85714286 -53.42857143 10.85714286 -50 12 C-50 11.34 -50 10.68 -50 10 C-46.7 10 -43.4 10 -40 10 C-40 9.34 -40 8.68 -40 8 C-37.36 7.34 -34.72 6.68 -32 6 C-31.67 4.35 -31.34 2.7 -31 1 C-30.67 1 -30.34 1 -30 1 C-29.505 4.465 -29.505 4.465 -29 8 C-30.04800781 8.29003906 -30.04800781 8.29003906 -31.1171875 8.5859375 C-32.02726562 8.84632813 -32.93734375 9.10671875 -33.875 9.375 C-34.77992188 9.63023437 -35.68484375 9.88546875 -36.6171875 10.1484375 C-39.14569726 10.8604315 -39.14569726 10.8604315 -41 13 C-42.32 13 -43.64 13 -45 13 C-45 23.89 -45 34.78 -45 46 C-42.37546875 45.2059375 -39.7509375 44.411875 -37.046875 43.59375 C-34.50218432 42.82794456 -31.95693369 42.06402844 -29.41162109 41.30029297 C-27.64377362 40.76873876 -25.87651435 40.23522416 -24.10986328 39.69970703 C-21.56955848 38.93004751 -19.02721772 38.16747637 -16.484375 37.40625 C-15.69569031 37.16563843 -14.90700562 36.92502686 -14.09442139 36.67712402 C-10.55449755 35.62428483 -7.72401715 35 -4 35 C-4 24.77 -4 14.54 -4 4 C-5.32 4.33 -6.64 4.66 -8 5 C-8.33 6.32 -8.66 7.64 -9 9 C-12.63 9.99 -16.26 10.98 -20 12 C-20 11.01 -20 10.02 -20 9 C-19.34 9 -18.68 9 -18 9 C-18.495 6.525 -18.495 6.525 -19 4 C-16.39898714 3.13499112 -13.79493589 2.28273072 -11.1875 1.4375 C-10.44951172 1.19064453 -9.71152344 0.94378906 -8.95117188 0.68945312 C-3.33984375 -1.11328125 -3.33984375 -1.11328125 0 0 Z " fill="#7E8D9A" transform="translate(173,136)"/>
<path d="M0 0 C0 1.98 0 3.96 0 6 C-5.61 7.98 -11.22 9.96 -17 12 C-16.505 13.485 -16.505 13.485 -16 15 C-17.32 14.67 -18.64 14.34 -20 14 C-20 14.66 -20 15.32 -20 16 C-20.72445312 15.98839844 -21.44890625 15.97679687 -22.1953125 15.96484375 C-27.26432113 15.917533 -32.0094305 16.0018861 -37 17 C-37.99 17 -38.98 17 -40 17 C-42.48120567 18.8155213 -42.48120567 18.8155213 -45 21.1875 C-46.299375 22.35345703 -46.299375 22.35345703 -47.625 23.54296875 C-50.09666163 25.86557923 -50.09666163 25.86557923 -51.42578125 28.75 C-53 31 -53 31 -55.91796875 31.70703125 C-56.99691406 31.74183594 -58.07585937 31.77664062 -59.1875 31.8125 C-60.27417969 31.86019531 -61.36085938 31.90789062 -62.48046875 31.95703125 C-63.31191406 31.97121094 -64.14335938 31.98539063 -65 32 C-65.66 31.01 -66.32 30.02 -67 29 C-65.68 28.34 -64.36 27.68 -63 27 C-64.04800781 27.09539062 -65.09601563 27.19078125 -66.17578125 27.2890625 C-67.55464022 27.40162242 -68.93354929 27.51356964 -70.3125 27.625 C-71.34793945 27.72167969 -71.34793945 27.72167969 -72.40429688 27.8203125 C-76.2559972 28.11802847 -77.68854416 28.20763723 -81 26 C-80.75 24.125 -80.75 24.125 -80 22 C-77.02602316 20.08815774 -74.74458497 19.77221809 -71.25 19.875 C-70.45078125 19.89304688 -69.6515625 19.91109375 -68.828125 19.9296875 C-68.22484375 19.95289063 -67.6215625 19.97609375 -67 20 C-66.67 19.34 -66.34 18.68 -66 18 C-63.69160455 17.49786706 -61.4297353 17.10290199 -59.09765625 16.75 C-50.36124184 15.26771615 -42.16202629 12.68922644 -33.79663086 9.81152344 C-31.41158841 8.99108661 -29.02185058 8.18573007 -26.63085938 7.3828125 C-25.08565094 6.86022155 -23.54071836 6.33681404 -21.99609375 5.8125 C-21.29495956 5.57490967 -20.59382538 5.33731934 -19.8714447 5.0925293 C-16.59345046 3.96318591 -13.40847388 2.7600083 -10.24633789 1.3359375 C-6.6053188 -0.16241976 -3.89935554 -0.23873605 0 0 Z " fill="#9FA9B4" transform="translate(127,149)"/>
<path d="M0 0 C2.875 2.25 2.875 2.25 5 5 C5 6.32 5 7.64 5 9 C4.34 9 3.68 9 3 9 C2.67 8.01 2.34 7.02 2 6 C1.01 7.32 0.02 8.64 -1 10 C-0.01 10.33 0.98 10.66 2 11 C1.67 11.33 1.34 11.66 1 12 C2.32 12.33 3.64 12.66 5 13 C5.33 12.34 5.66 11.68 6 11 C5.72987799 17.0777453 5.0169245 21.15606163 1 26 C-2.68497796 28.45665197 -5.71971786 28.70086491 -10 28 C-12.8100346 26.20636089 -14.50940468 24.98119065 -16 22 C-16.78953283 15.30024996 -16.45870437 10.12738127 -12.421875 4.59375 C-8.81880878 0.5551483 -5.37843252 -0.89640542 0 0 Z " fill="#C2C3C4" transform="translate(99,181)"/>
<path d="M0 0 C2.95277362 0.44022081 5.73200269 0.99086625 8.625 1.6875 C9.40746094 1.86216797 10.18992188 2.03683594 10.99609375 2.21679688 C16.18823376 3.41796359 21.04761683 5.03377922 26 7 C23.61888619 9.82220459 21.75438419 10.55178676 18.16796875 11.28125 C17.21116211 11.48194092 16.25435547 11.68263184 15.26855469 11.8894043 C14.25180664 12.09090088 13.23505859 12.29239746 12.1875 12.5 C11.14883789 12.71503174 10.11017578 12.93006348 9.04003906 13.15161133 C6.96881869 13.58013412 4.89672438 14.00445705 2.82373047 14.42431641 C-0.70886487 15.14451871 -4.2286868 15.91414582 -7.75 16.6875 C-13.47920259 17.91419058 -19.22737892 18.99862696 -25 20 C-21.04032147 14.63527425 -16.61309929 11.51838857 -11 8 C-9.35035884 6.92247389 -7.70438775 5.83930395 -6.0625 4.75 C-5.33160156 4.27046875 -4.60070312 3.7909375 -3.84765625 3.296875 C-1.88018917 1.99520833 -1.88018917 1.99520833 0 0 Z " fill="#9A9FA1" transform="translate(105,107)"/>
<path d="M0 0 C0.45890625 0.3609375 0.9178125 0.721875 1.390625 1.09375 C2.31101562 1.78984375 2.31101562 1.78984375 3.25 2.5 C3.85328125 2.9640625 4.4565625 3.428125 5.078125 3.90625 C7.21085595 5.32974419 7.21085595 5.32974419 11 5 C12 6 13 7 14 8 C16.60611077 8.72197162 16.60611077 8.72197162 19 9 C18.95875 8.21625 18.9175 7.4325 18.875 6.625 C19 4 19 4 21 2 C27.40069764 0.86976529 32.10079011 1.99295718 37.40625 5.61328125 C39 7 39 7 41 10 C41 10.99 41 11.98 41 13 C42.98 13.33 44.96 13.66 47 14 C47 14.99 47 15.98 47 17 C29.05379395 15.77910213 12.93498464 14.05396854 -3 5 C-2.01 4.67 -1.02 4.34 0 4 C0 2.68 0 1.36 0 0 Z " fill="#050506" transform="translate(74,131)"/>
<path d="M0 0 C3.78696193 0.45443543 4.79426305 1.43999792 7.125 4.375 C8.47939668 7.08379335 8.19001451 9.38433268 8.125 12.375 C6.145 13.365 6.145 13.365 4.125 14.375 C5.115 14.375 6.105 14.375 7.125 14.375 C6.82697895 17.85191229 6.1132377 19.39012296 3.9375 22.1875 C1.125 24.375 1.125 24.375 -1.9375 24.9375 C-5.51165177 24.25308796 -6.67503128 23.22681131 -8.875 20.375 C-10.30096523 16.09710432 -10.85530784 12.40145725 -8.828125 8.2109375 C-4.08136285 0.53235168 -4.08136285 0.53235168 0 0 Z " fill="#D2D3D4" transform="translate(225.875,144.625)"/>
<path d="M0 0 C3.66593006 0.91648251 5.42053938 2.16896194 7.375 5.3125 C8.61528212 7.74750286 8.9991066 8.96069055 9.0625 11.75 C7.59833282 14.85058933 6.11239324 15.61671412 3 17 C-1.38739829 18.16400363 -3.07701195 17.96149402 -7 16 C-11.26175232 15.61096037 -14.83558456 15.95889614 -19 17 C-18.67 13.7 -18.34 10.4 -18 7 C-16.95199219 6.74605469 -15.90398437 6.49210937 -14.82421875 6.23046875 C-13.44517401 5.88336225 -12.06627522 5.53567556 -10.6875 5.1875 C-9.99720703 5.02185547 -9.30691406 4.85621094 -8.59570312 4.68554688 C-4.97687335 3.75898659 -2.29388645 3.06730411 0 0 Z " fill="#BDC2C9" transform="translate(238,114)"/>
<path d="M0 0 C-0.66 0 -1.32 0 -2 0 C-2 9.9 -2 19.8 -2 30 C0.20300781 29.278125 2.40601563 28.55625 4.67578125 27.8125 C6.81012318 27.11645568 8.94495198 26.42192485 11.07983398 25.72753906 C12.56342333 25.24409497 14.04650134 24.75907875 15.52905273 24.27246094 C17.65996993 23.57333176 19.79266126 22.87987457 21.92578125 22.1875 C22.9196862 21.85939331 22.9196862 21.85939331 23.93367004 21.5246582 C26.75405555 20.61452414 29.01399134 20 32 20 C32.14695312 19.07380859 32.14695312 19.07380859 32.296875 18.12890625 C33.3694433 12.05410132 34.86870322 6.36968471 38 1 C38.66 0.67 39.32 0.34 40 0 C39.38125 1.794375 39.38125 1.794375 38.75 3.625 C37.72941948 6.59696827 36.8790084 9.51253384 36.15625 12.57421875 C33.79807692 22.30168269 33.79807692 22.30168269 30 25.625 C28.1796875 26.33984375 28.1796875 26.33984375 26 27 C24.61167969 27.52787109 24.61167969 27.52787109 23.1953125 28.06640625 C17.10776755 30.2892121 11.43655794 31.53322671 5 32 C2.66138313 32.30315404 0.33257557 32.65259513 -2 33 C-3.36839363 30.26321275 -3.21634818 27.95735576 -3.31640625 24.8984375 C-3.35830078 23.68671875 -3.40019531 22.475 -3.44335938 21.2265625 C-3.48267578 19.95554688 -3.52199219 18.68453125 -3.5625 17.375 C-3.60568359 16.09625 -3.64886719 14.8175 -3.69335938 13.5 C-3.79969886 10.33344652 -3.90172833 7.16681247 -4 4 C-5.32 4.33 -6.64 4.66 -8 5 C-8.33 6.32 -8.66 7.64 -9 9 C-14.445 10.485 -14.445 10.485 -20 12 C-20 11.01 -20 10.02 -20 9 C-19.34 9 -18.68 9 -18 9 C-18.33 7.35 -18.66 5.7 -19 4 C-16.39898714 3.13499112 -13.79493589 2.28273072 -11.1875 1.4375 C-10.44951172 1.19064453 -9.71152344 0.94378906 -8.95117188 0.68945312 C-3.33984375 -1.11328125 -3.33984375 -1.11328125 0 0 Z " fill="#7E8C99" transform="translate(173,136)"/>
<path d="M0 0 C2.12036133 0.94921875 2.12036133 0.94921875 4 2 C3.39003174 2.13986328 2.78006348 2.27972656 2.15161133 2.42382812 C-0.6370439 3.08303708 -3.41114794 3.79083305 -6.1875 4.5 C-7.14720703 4.71914062 -8.10691406 4.93828125 -9.09570312 5.1640625 C-13.93748961 6.43733507 -17.21363684 7.46422081 -20.03125 11.76171875 C-21.93737151 15.47478702 -23.24078388 19.27702573 -24.3125 23.3125 C-24.63863281 24.50488281 -24.96476563 25.69726562 -25.30078125 26.92578125 C-26.11089088 29.9620926 -26.11089088 29.9620926 -26 33 C-25.34 31.02 -24.68 29.04 -24 27 C-20.7 27 -17.4 27 -14 27 C-13.67 28.32 -13.34 29.64 -13 31 C-14.625 33.25 -14.625 33.25 -17 35 C-19.75 35.25 -19.75 35.25 -22 35 C-22 35.66 -22 36.32 -22 37 C-25.3 37 -28.6 37 -32 37 C-32 37.66 -32 38.32 -32 39 C-32.66 39 -33.32 39 -34 39 C-32.32174858 31.22704604 -29.98203444 23.90355758 -27.06982422 16.52148438 C-25.70470738 13.03333644 -24.5853846 9.70505621 -24 6 C-18.18002226 4.6642674 -12.37578731 3.51527876 -6.48046875 2.5625 C-3.97939977 2.12251834 -3.97939977 2.12251834 -1.92578125 0.8125 C-1.29027344 0.544375 -0.65476563 0.27625 0 0 Z " fill="#A0A8B2" transform="translate(155,109)"/>
<path d="M0 0 C-0.57492188 0.4228125 -1.14984375 0.845625 -1.7421875 1.28125 C-3.93926191 2.95376339 -6.03888111 4.69150149 -8.125 6.5 C-8.80820313 7.0878125 -9.49140625 7.675625 -10.1953125 8.28125 C-12.20474992 10.06882696 -12.20474992 10.06882696 -14 13 C-13.51644043 12.70754395 -13.03288086 12.41508789 -12.53466797 12.11376953 C-10.3183949 10.77807161 -8.09679121 9.45149706 -5.875 8.125 C-4.73417969 7.43470703 -4.73417969 7.43470703 -3.5703125 6.73046875 C0.53543017 4.28825975 4.35908849 2.28996582 9 1 C9 1.99 9 2.98 9 4 C7.6427164 4.98403061 6.27140977 5.95321238 4.84375 6.83203125 C2.80776074 8.12177869 0.91544486 9.53763152 -1 11 C-3.40120538 12.8227123 -5.79235014 14.52325009 -8.3125 16.1875 C-10.95951248 17.78402234 -10.95951248 17.78402234 -12.375 19.6875 C-15.14052024 21.92118942 -18.53067699 21.90888647 -22 22 C-24.375 21.5625 -24.375 21.5625 -26 21 C-26.66 21 -27.32 21 -28 21 C-28.25 18.6875 -28.25 18.6875 -28 16 C-25.85530164 13.77281324 -24.14234145 13.04044461 -21.16796875 12.1953125 C-17.589958 10.84528625 -15.67632428 9.20583436 -12.9375 6.5625 C-4.52200489 -1.50733496 -4.52200489 -1.50733496 0 0 Z " fill="#C1C6C9" transform="translate(94,106)"/>
<path d="M0 0 C0.33 0 0.66 0 1 0 C1.495 3.465 1.495 3.465 2 7 C1.30132812 7.19335938 0.60265625 7.38671875 -0.1171875 7.5859375 C-1.02726562 7.84632813 -1.93734375 8.10671875 -2.875 8.375 C-3.77992188 8.63023437 -4.68484375 8.88546875 -5.6171875 9.1484375 C-8.14569726 9.8604315 -8.14569726 9.8604315 -10 12 C-11.32 12 -12.64 12 -14 12 C-14 22.89 -14 33.78 -14 45 C-11.37546875 44.2059375 -8.7509375 43.411875 -6.046875 42.59375 C-3.50218432 41.82794456 -0.95693369 41.06402844 1.58837891 40.30029297 C3.35622638 39.76873876 5.12348565 39.23522416 6.89013672 38.69970703 C9.43044152 37.93004751 11.97278228 37.16747637 14.515625 36.40625 C15.30430969 36.16563843 16.09299438 35.92502686 16.90557861 35.67712402 C20.44550245 34.62428483 23.27598285 34 27 34 C27 22.78 27 11.56 27 0 C27.33 0 27.66 0 28 0 C28.33 10.56 28.66 21.12 29 32 C34.445 30.515 34.445 30.515 40 29 C41.485 29.495 41.485 29.495 43 30 C30.77503635 34.18144858 18.52472569 38.23948346 6.125 41.875 C5.15884766 42.16060791 4.19269531 42.44621582 3.19726562 42.74047852 C2.26849609 43.00916748 1.33972656 43.27785645 0.3828125 43.5546875 C-0.41753418 43.78655762 -1.21788086 44.01842773 -2.04248047 44.25732422 C-6.32440699 45.33257768 -10.67086516 46.13417303 -15 47 C-15 35.45 -15 23.9 -15 12 C-18.3 12.33 -21.6 12.66 -25 13 C-25 12.67 -25 12.34 -25 12 C-27.97 11.505 -27.97 11.505 -31 11 C-31 10.67 -31 10.34 -31 10 C-22.42857143 9.85714286 -22.42857143 9.85714286 -19 11 C-19 10.34 -19 9.68 -19 9 C-15.7 9 -12.4 9 -9 9 C-9 8.34 -9 7.68 -9 7 C-6.36 6.34 -3.72 5.68 -1 5 C-0.67 3.35 -0.34 1.7 0 0 Z " fill="#5A6F7D" transform="translate(142,137)"/>
<path d="M0 0 C3.34777707 0.19692806 5.84477133 1.39228873 8.75 2.9375 C12.49325699 4.90538367 16.06975933 5.84470712 20.21484375 6.60546875 C22 7 22 7 23 8 C22.28 14.72 22.28 14.72 21 16 C12.01532986 15.57215856 3.71399747 13.26639764 -3 7 C-2.25 2.25 -2.25 2.25 0 0 Z " fill="#030303" transform="translate(15,161)"/>
<path d="M0 0 C0 1.32 0 2.64 0 4 C-8.2085424 6.93162229 -16.53630853 8.93741973 -25 11 C-25.33 20.24 -25.66 29.48 -26 39 C-13.13 34.71 -0.26 30.42 13 26 C13.495 27.98 13.495 27.98 14 30 C8.64463204 31.5716882 3.28776832 33.13812976 -2.07055664 34.69970703 C-3.89357 35.23179124 -5.71616459 35.76531236 -7.53833008 36.30029297 C-10.15597787 37.06855442 -12.77508302 37.83165326 -15.39453125 38.59375 C-16.21025101 38.83436157 -17.02597076 39.07497314 -17.8664093 39.32287598 C-20.99757707 40.22953669 -23.72232799 41 -27 41 C-27 30.11 -27 19.22 -27 8 C-22.68381685 6.27352674 -18.36615014 4.59337143 -14 3 C-12.84177734 2.57460937 -12.84177734 2.57460937 -11.66015625 2.140625 C-7.66971154 0.73301389 -4.29840101 -0.41597429 0 0 Z " fill="#A5ADB6" transform="translate(155,141)"/>
<path d="M0 0 C0 1.67203927 -0.012021 3.34460213 -0.0703125 5.015625 C-0.19260293 10.01206248 -0.20367578 14.41635438 2 19 C8.1535044 23.88393928 16.1536395 26.49039753 24 26 C24.66 24.02 25.32 22.04 26 20 C27.4606285 22.64738916 28 23.89448334 28 27 C28.59014893 27.01981934 29.18029785 27.03963867 29.78833008 27.06005859 C32.46350096 27.15534659 35.13789498 27.26500939 37.8125 27.375 C38.74126953 27.4059375 39.67003906 27.436875 40.62695312 27.46875 C41.51962891 27.50742188 42.41230469 27.54609375 43.33203125 27.5859375 C44.15421143 27.6173584 44.9763916 27.6487793 45.82348633 27.68115234 C48 28 48 28 51 30 C46.26376652 31.39328821 41.75609292 30.93632666 36.875 30.6875 C35.97523437 30.65205078 35.07546875 30.61660156 34.1484375 30.58007812 C25.06178443 30.14271767 16.62868173 28.60863503 8.1875 25.1875 C7.55908203 24.95224609 6.93066406 24.71699219 6.28320312 24.47460938 C0.52279463 22.17647782 -2.72625194 18.80447642 -6.25 13.8125 C-7 10 -7 10 -5.62109375 7.328125 C-3.84403999 4.78639962 -1.99848259 2.37051515 0 0 Z " fill="#9DA6B0" transform="translate(12,150)"/>
<path d="M0 0 C0.33 0.99 0.66 1.98 1 3 C1.495 2.67 1.99 2.34 2.5 2 C6.67453354 0.33018659 10.91410314 0.47852578 15.25 1.5625 C18.14640553 3.94169025 19.84624778 6.48466122 21 10 C21.32158769 14.02487097 21.2380961 17.97220768 21 22 C20.67 22 20.34 22 20 22 C19.89042969 21.32453125 19.78085938 20.6490625 19.66796875 19.953125 C19.50941406 19.06109375 19.35085937 18.1690625 19.1875 17.25 C19.03667969 16.36828125 18.88585937 15.4865625 18.73046875 14.578125 C17.89737022 11.63777723 17.24615261 10.08944429 15 8 C10.24738689 6.97305345 5.76943577 7.10741112 1 8 C-3.94215999 11.30562925 -6.71613748 16.62620584 -9 22 C-10.27871063 19.44257873 -9.85380127 18.74518239 -9 16.0625 C-6.94856022 10.14895998 -3.50754674 5.14119864 0 0 Z " fill="#8B97A5" transform="translate(218,128)"/>
<path d="M0 0 C0.66 0.33 1.32 0.66 2 1 C1.01 2.485 1.01 2.485 0 4 C1.98 3.67 3.96 3.34 6 3 C5.34 3.66 4.68 4.32 4 5 C3.01 5 2.02 5 1 5 C0.7525 5.886875 0.505 6.77375 0.25 7.6875 C-1.27130335 11.71895387 -3.33069883 14.57033087 -6.60546875 17.375 C-8.84895143 19.98925433 -8.40327022 22.39892557 -8.30078125 25.7109375 C-7.88215349 28.89685785 -6.66046616 31.27683549 -5 34 C-4.67 34.66 -4.34 35.32 -4 36 C-10.70212766 34.06382979 -10.70212766 34.06382979 -13 31 C-13 30.34 -13 29.68 -13 29 C-13.66 28.67 -14.32 28.34 -15 28 C-14.04720516 25.6180129 -13.09269575 23.2369463 -12.12890625 20.859375 C-11.41446835 19.04979528 -10.73058281 17.22759363 -10.08984375 15.390625 C-7.82874489 9.08695545 -4.71431025 4.74079514 0 0 Z " fill="#3F3F40" transform="translate(222,137)"/>
<path d="M0 0 C8.42939481 2.37752161 8.42939481 2.37752161 11.0625 5.25 C11.701875 5.8275 12.34125 6.405 13 7 C15.83398047 6.8558993 18.24364873 6.52914248 21 6 C22.66504963 5.79864516 24.33180608 5.61088708 26 5.4375 C26.763125 5.35371094 27.52625 5.26992187 28.3125 5.18359375 C29.1478125 5.09271484 29.1478125 5.09271484 30 5 C28.74458443 7.51083114 27.49936512 7.87125446 25 9 C25 10.98 25 12.96 25 15 C19.97734643 13.81819916 16.9050849 12.55007718 13 9 C12.67 9.66 12.34 10.32 12 11 C10.02 9.35 8.04 7.7 6 6 C5.67 6.99 5.34 7.98 5 9 C3.25 9.9375 3.25 9.9375 1 10 C-1.75 8.0625 -1.75 8.0625 -4 6 C-3.34 5.38125 -2.68 4.7625 -2 4.125 C0.2284549 2.24362573 0.2284549 2.24362573 0 0 Z " fill="#212C33" transform="translate(69,126)"/>
<path d="M0 0 C0.77601562 0.00064453 1.55203125 0.00128906 2.3515625 0.00195312 C8.09362599 0.046813 8.09362599 0.046813 10.375 1.1875 C10.1875 3.0625 10.1875 3.0625 9.375 5.1875 C5.28036936 7.33120493 1.31607037 7.6312941 -3.25 7.9375 C-4.56226563 8.03546875 -5.87453125 8.1334375 -7.2265625 8.234375 C-10.625 8.1875 -10.625 8.1875 -13.625 6.1875 C-13.375 4.3125 -13.375 4.3125 -12.625 2.1875 C-8.86213244 -0.61027976 -4.46763896 -0.07121237 0 0 Z " fill="#B9B9BA" transform="translate(59.625,168.8125)"/>
<path d="M0 0 C4.94469921 0.46356555 9.42577862 2.56492106 13 6 C13.5 9.8125 13.5 9.8125 13 13 C18.83799592 14.69832609 23.93107371 15.25287193 30 15 C30 15.66 30 16.32 30 17 C22.45372643 19.01233962 16.37904525 16.32089399 9.65625 12.7578125 C6.06063258 10.59775875 2.53932338 8.38576451 0 5 C-0.25 2.25 -0.25 2.25 0 0 Z " fill="#646566" transform="translate(9,176)"/>
<path d="M0 0 C0.66 0.99 1.32 1.98 2 3 C-2.14751399 12.287784 -2.14751399 12.287784 -6 14 C-8.71955227 14.22488605 -11.26079585 14.13696021 -14 14 C-14 12.68 -14 11.36 -14 10 C-14.66 10 -15.32 10 -16 10 C-15.67 8.68 -15.34 7.36 -15 6 C-9 6 -9 6 -7 7 C-7 7.66 -7 8.32 -7 9 C-6.34 9 -5.68 9 -5 9 C-5.66 7.35 -6.32 5.7 -7 4 C-6.34 4 -5.68 4 -5 4 C-5 3.01 -5 2.02 -5 1 C-3.35 0.67 -1.7 0.34 0 0 Z " fill="#6F6F70" transform="translate(103,195)"/>
<path d="M0 0 C0 0.66 0 1.32 0 2 C-0.66 2 -1.32 2 -2 2 C-2 11.24 -2 20.48 -2 30 C-2.99 30.33 -3.98 30.66 -5 31 C-5 21.76 -5 12.52 -5 3 C-6.98 3.66 -8.96 4.32 -11 5 C-13.875 5.125 -13.875 5.125 -16 5 C-16 4.01 -16 3.02 -16 2 C-14.98679688 1.90912109 -14.98679688 1.90912109 -13.953125 1.81640625 C-13.06109375 1.73261719 -12.1690625 1.64882812 -11.25 1.5625 C-10.36828125 1.48128906 -9.4865625 1.40007812 -8.578125 1.31640625 C-5.66669679 0.95909461 -2.92530545 0 0 0 Z " fill="#B9BFC8" transform="translate(173,105)"/>
<path d="M0 0 C0.33 0 0.66 0 1 0 C1 4.62 1 9.24 1 14 C13.87 9.71 26.74 5.42 40 1 C40.495 2.98 40.495 2.98 41 5 C35.64463204 6.5716882 30.28776832 8.13812976 24.92944336 9.69970703 C23.10643 10.23179124 21.28383541 10.76531236 19.46166992 11.30029297 C16.84402213 12.06855442 14.22491698 12.83165326 11.60546875 13.59375 C10.38188911 13.95466736 10.38188911 13.95466736 9.1335907 14.32287598 C6.00242293 15.22953669 3.27767201 16 0 16 C0 10.72 0 5.44 0 0 Z " fill="#83909D" transform="translate(128,166)"/>
<path d="M0 0 C3.3 0 6.6 0 10 0 C10.33 1.32 10.66 2.64 11 4 C9.375 6.25 9.375 6.25 7 8 C4.25 8.25 4.25 8.25 2 8 C2 8.66 2 9.32 2 10 C-0.97 10 -3.94 10 -7 10 C-5.68 8.35 -4.36 6.7 -3 5 C-2.67 5.33 -2.34 5.66 -2 6 C-1.34 4.02 -0.68 2.04 0 0 Z " fill="#667986" transform="translate(131,136)"/>
<path d="M0 0 C-0.58394531 0.42925781 -1.16789062 0.85851562 -1.76953125 1.30078125 C-3.81929487 2.86233497 -5.75621632 4.48294983 -7.6875 6.1875 C-8.37457031 6.79078125 -9.06164062 7.3940625 -9.76953125 8.015625 C-11.33862908 9.41159995 -12.89766691 10.8189242 -14.44921875 12.234375 C-15.24972656 12.96140625 -16.05023438 13.6884375 -16.875 14.4375 C-17.98488281 15.45650391 -17.98488281 15.45650391 -19.1171875 16.49609375 C-21 18 -21 18 -23 18 C-23.495 18.495 -23.99 18.99 -24.5 19.5 C-24.995 19.995 -25.49 20.49 -26 21 C-26.66 21 -27.32 21 -28 21 C-28.25 18.6875 -28.25 18.6875 -28 16 C-25.85530164 13.77281324 -24.14234145 13.04044461 -21.16796875 12.1953125 C-17.589958 10.84528625 -15.67632428 9.20583436 -12.9375 6.5625 C-4.52200489 -1.50733496 -4.52200489 -1.50733496 0 0 Z " fill="#A4ACB6" transform="translate(94,106)"/>
<path d="M0 0 C-0.825 0.763125 -1.65 1.52625 -2.5 2.3125 C-5.34055197 4.75434142 -5.34055197 4.75434142 -5 8 C-10.445 9.485 -10.445 9.485 -16 11 C-16.33 9.68 -16.66 8.36 -17 7 C-17.33 6.01 -17.66 5.02 -18 4 C-15.56592995 3.13475247 -13.12856816 2.28257135 -10.6875 1.4375 C-9.99720703 1.19064453 -9.30691406 0.94378906 -8.59570312 0.68945312 C-3.33984375 -1.11328125 -3.33984375 -1.11328125 0 0 Z " fill="#9DA3AB" transform="translate(215,123)"/>
<path d="M0 0 C1.03125 0.639375 2.0625 1.27875 3.125 1.9375 C6.46269782 3.84570572 9.18375732 4.41288574 13 5 C15.79838253 5.95897304 18.55666609 6.99774919 21.31640625 8.0625 C23.87317639 8.95569481 26.33532135 9.53741564 29 10 C29 10.33 29 10.66 29 11 C27.01432292 10.96744792 25.02864583 10.93489583 23.04296875 10.90234375 C20.79694539 10.91736783 20.79694539 10.91736783 18 12 C11.45557622 10.98448597 5.93397404 8.5129128 1 4 C0.24609375 1.8046875 0.24609375 1.8046875 0 0 Z " fill="#B6C1CB" transform="translate(8,184)"/>
<path d="M0 0 C-0.99 0.495 -0.99 0.495 -2 1 C-1.79375 1.78375 -1.5875 2.5675 -1.375 3.375 C-1.25125 4.24125 -1.1275 5.1075 -1 6 C-1.66 6.66 -2.32 7.32 -3 8 C-3.33 6.68 -3.66 5.36 -4 4 C-4.33 5.65 -4.66 7.3 -5 9 C-5.66 8.67 -6.32 8.34 -7 8 C-7 8.99 -7 9.98 -7 11 C-8.32 11 -9.64 11 -11 11 C-10.01 12.485 -10.01 12.485 -9 14 C-10.65 14 -12.3 14 -14 14 C-14.75 11.875 -14.75 11.875 -15 9 C-11.47348691 2.21824406 -7.6586844 -0.53432682 0 0 Z " fill="#898A8B" transform="translate(99,181)"/>
<path d="M0 0 C-3.06934601 1.73442126 -6.15724067 3.43273546 -9.25 5.125 C-10.12269531 5.61871094 -10.99539062 6.11242187 -11.89453125 6.62109375 C-12.73886719 7.07871094 -13.58320312 7.53632813 -14.453125 8.0078125 C-15.22817383 8.43723145 -16.00322266 8.86665039 -16.80175781 9.30908203 C-19 10 -19 10 -21.14355469 9.25732422 C-23.38388393 7.74000497 -25.15729594 5.97432578 -27 4 C-26.06148193 3.82609741 -26.06148193 3.82609741 -25.10400391 3.64868164 C-22.27708033 3.12306613 -19.45104062 2.59284139 -16.625 2.0625 C-15.64015625 1.88009766 -14.6553125 1.69769531 -13.640625 1.50976562 C-12.22910156 1.24389648 -12.22910156 1.24389648 -10.7890625 0.97265625 C-9.91975098 0.81031494 -9.05043945 0.64797363 -8.15478516 0.48071289 C-2.55891527 -0.76767458 -2.55891527 -0.76767458 0 0 Z " fill="#676F74" transform="translate(102,123)"/>
<path d="M0 0 C1.26521484 -0.00128906 2.53042969 -0.00257812 3.83398438 -0.00390625 C5.14818359 -0.00003906 6.46238281 0.00382812 7.81640625 0.0078125 C9.12673828 0.00394531 10.43707031 0.00007813 11.78710938 -0.00390625 C13.05361328 -0.00261719 14.32011719 -0.00132813 15.625 0 C16.77669678 0.00112793 17.92839355 0.00225586 19.11499023 0.00341797 C22.28531468 0.12910216 25.26541342 0.53895185 28.37890625 1.1328125 C24.91046003 3.25563199 22.17198474 3.37830906 18.14453125 3.36328125 C16.93023437 3.36134766 15.7159375 3.35941406 14.46484375 3.35742188 C13.19898438 3.34517578 11.933125 3.33292969 10.62890625 3.3203125 C9.37851563 3.31966797 8.128125 3.31902344 6.83984375 3.31835938 C0.59879594 3.28867152 -5.4528197 3.1014485 -11.62109375 2.1328125 C-11.62109375 1.8028125 -11.62109375 1.4728125 -11.62109375 1.1328125 C-7.69134463 0.20659662 -4.03304626 0.00395369 0 0 Z " fill="#BBC2CB" transform="translate(154.62109375,90.8671875)"/>
<path d="M0 0 C0.33 1.32 0.66 2.64 1 4 C-0.32 4.33 -1.64 4.66 -3 5 C-3.33 6.32 -3.66 7.64 -4 9 C-9.445 10.485 -9.445 10.485 -15 12 C-15 11.01 -15 10.02 -15 9 C-14.34 9 -13.68 9 -13 9 C-13.33 7.35 -13.66 5.7 -14 4 C-9.38 2.68 -4.76 1.36 0 0 Z " fill="#A1A8B1" transform="translate(168,136)"/>
<path d="M0 0 C0.66 0 1.32 0 2 0 C5 5.75 5 5.75 5 8 C17.94071029 14.64437448 30.7177051 17.7011304 45 20 C45 20.33 45 20.66 45 21 C30.5541956 21.69155447 17.0197494 18.24471162 5 10 C2.23673744 7.10491208 0 4.18972951 0 0 Z " fill="#E2E5E8" transform="translate(4,161)"/>
<path d="M0 0 C3.9129896 0.54599855 7.50314454 1.10170704 11 3 C11.875 5 11.875 5 12 7 C11.67 7.66 11.34 8.32 11 9 C9.741875 9.020625 8.48375 9.04125 7.1875 9.0625 C6.47980469 9.07410156 5.77210937 9.08570313 5.04296875 9.09765625 C3 9 3 9 0 8 C0 5.36 0 2.72 0 0 Z " fill="#B4B5B5" transform="translate(27,183)"/>
<path d="M0 0 C0.33 0 0.66 0 1 0 C1.33 1.98 1.66 3.96 2 6 C3.32 5.34 4.64 4.68 6 4 C6.77923828 4.61488281 6.77923828 4.61488281 7.57421875 5.2421875 C11.2423777 8.07636576 14.51449706 10.59828033 19 12 C19 12.66 19 13.32 19 14 C14.9785844 14.38299196 13.35525905 14.2392561 9.9375 11.9375 C7.2016361 9.70716306 7.2016361 9.70716306 4.25 10.1875 C2.00608548 10.94827341 2.00608548 10.94827341 0 12 C-1.1898306 9.6203388 -1.13349966 8.08514265 -1.125 5.4375 C-1.12886719 4.22900391 -1.12886719 4.22900391 -1.1328125 2.99609375 C-1 1 -1 1 0 0 Z " fill="#ABB2BC" transform="translate(12,152)"/>
<path d="M0 0 C-2.99655297 1.99770198 -5.26854624 2.8008651 -8.69921875 3.8046875 C-9.82650391 4.14113281 -10.95378906 4.47757813 -12.11523438 4.82421875 C-14.47665461 5.51883006 -16.83862576 6.21157151 -19.20117188 6.90234375 C-26.75340667 9.16071527 -33.40503438 11.60335625 -40 16 C-39.10171484 12.94989051 -38.57765072 11.36797714 -35.84765625 9.62890625 C-32.57765384 8.37685764 -29.31029606 7.14087276 -26 6 C-24.8557959 5.60216309 -24.8557959 5.60216309 -23.68847656 5.19628906 C-21.19421783 4.34046447 -18.69326422 3.50899436 -16.1875 2.6875 C-15.38771729 2.42074463 -14.58793457 2.15398926 -13.76391602 1.87915039 C-8.98340203 0.36624134 -5.01295052 -0.28779289 0 0 Z " fill="#DADEE3" transform="translate(57,134)"/>
<path d="M0 0 C1.65 0 3.3 0 5 0 C5 0.99 5 1.98 5 3 C3.4609375 4.25390625 3.4609375 4.25390625 1.375 5.5625 C-3.6605725 9.1017369 -6.19336217 13.62061082 -9 19 C-9.66 18.67 -10.32 18.34 -11 18 C-10.35022169 11.17732778 -7.13046238 6.44640073 -2 2 C-1.34 2 -0.68 2 0 2 C0 1.34 0 0.68 0 0 Z " fill="#BBC1C9" transform="translate(88,170)"/>
<path d="M0 0 C0 4.52313169 -1.62737101 8.4796939 -3.00390625 12.76171875 C-3.75916708 15.21705691 -4.32576829 17.55227694 -4.8125 20.0625 C-6.16981511 23.42006897 -7.6198647 24.58022846 -10.859375 26.15234375 C-21.68390325 30.43869892 -21.68390325 30.43869892 -26 29 C-23.69 28.34 -21.38 27.68 -19 27 C-19 26.34 -19 25.68 -19 25 C-17.56445975 24.49440092 -16.1264798 23.9957251 -14.6875 23.5 C-13.88699219 23.2215625 -13.08648437 22.943125 -12.26171875 22.65625 C-10 22 -10 22 -7 22 C-6.9175 20.741875 -6.835 19.48375 -6.75 18.1875 C-6.07230829 11.99988007 -4.50268956 4.50268956 0 0 Z " fill="#5F7381" transform="translate(212,136)"/>
<path d="M0 0 C0.33 0 0.66 0 1 0 C1.495 3.465 1.495 3.465 2 7 C1.30132812 7.19335938 0.60265625 7.38671875 -0.1171875 7.5859375 C-1.02726562 7.84632813 -1.93734375 8.10671875 -2.875 8.375 C-3.77992188 8.63023437 -4.68484375 8.88546875 -5.6171875 9.1484375 C-8.14569726 9.8604315 -8.14569726 9.8604315 -10 12 C-12.56916657 12.30599063 -15.04758384 12.51087087 -17.625 12.625 C-18.68460938 12.68300781 -18.68460938 12.68300781 -19.765625 12.7421875 C-21.50998524 12.83647724 -23.25495691 12.91932891 -25 13 C-25 12.67 -25 12.34 -25 12 C-27.97 11.505 -27.97 11.505 -31 11 C-31 10.67 -31 10.34 -31 10 C-22.42857143 9.85714286 -22.42857143 9.85714286 -19 11 C-19 10.34 -19 9.68 -19 9 C-15.7 9 -12.4 9 -9 9 C-9 8.34 -9 7.68 -9 7 C-6.36 6.34 -3.72 5.68 -1 5 C-0.67 3.35 -0.34 1.7 0 0 Z " fill="#536673" transform="translate(142,137)"/>
<path d="M0 0 C-6.87775846 6.64849985 -16.91657297 7.53214582 -26 9 C-26 8.34 -26 7.68 -26 7 C-21.06292665 4.29257268 -16.1457782 2.7207847 -10.75 1.25 C-9.52796875 0.90001953 -9.52796875 0.90001953 -8.28125 0.54296875 C-7.50265625 0.32769531 -6.7240625 0.11242187 -5.921875 -0.109375 C-5.21643555 -0.30499023 -4.51099609 -0.50060547 -3.78417969 -0.70214844 C-2 -1 -2 -1 0 0 Z " fill="#A2A9B2" transform="translate(197,129)"/>
<path d="M0 0 C-1.19625 0.515625 -2.3925 1.03125 -3.625 1.5625 C-8.61064716 3.76509053 -13.46050648 6.21158771 -18.30126953 8.71313477 C-22.78529458 11 -22.78529458 11 -25 11 C-25 11.66 -25 12.32 -25 13 C-26.65 13 -28.3 13 -30 13 C-26.33927085 8.55628156 -21.61625815 6.65455784 -16.5 4.3125 C-15.64535156 3.90966797 -14.79070312 3.50683594 -13.91015625 3.09179688 C-4.23756559 -1.41252186 -4.23756559 -1.41252186 0 0 Z " fill="#4A5359" transform="translate(112,121)"/>
<path d="M0 0 C0.66 0.66 1.32 1.32 2 2 C-1.20720862 2.5073957 -4.41592163 3.004579 -7.625 3.5 C-8.52863281 3.64308594 -9.43226563 3.78617187 -10.36328125 3.93359375 C-19.76225296 5.37431204 -19.76225296 5.37431204 -24 5 C-24.66 4.34 -25.32 3.68 -26 3 C-7.94550243 -1.71373582 -7.94550243 -1.71373582 0 0 Z " fill="#232323" transform="translate(199,103)"/>
<path d="M0 0 C1.98 0.495 1.98 0.495 4 1 C4.33 2.32 4.66 3.64 5 5 C5.99 5 6.98 5 8 5 C8.66 4.34 9.32 3.68 10 3 C10.66 4.65 11.32 6.3 12 8 C9.58330297 10.23079726 8.24984673 10.96940652 4.9375 11.375 C2 11 2 11 0.125 9.5 C-0.24625 9.005 -0.6175 8.51 -1 8 C-0.34 8 0.32 8 1 8 C0.67 7.01 0.34 6.02 0 5 C0.33 4.34 0.66 3.68 1 3 C0.34 3 -0.32 3 -1 3 C-0.67 2.01 -0.34 1.02 0 0 Z " fill="#A6A7A8" transform="translate(219,158)"/>
<path d="M0 0 C4.39683488 1.19913678 7.09840934 2.4288115 10 6 C10 6.66 10 7.32 10 8 C8.68 7.34 7.36 6.68 6 6 C5.67 6.99 5.34 7.98 5 9 C3.25 9.9375 3.25 9.9375 1 10 C-1.75 8.0625 -1.75 8.0625 -4 6 C-3.34 5.38125 -2.68 4.7625 -2 4.125 C0.2284549 2.24362573 0.2284549 2.24362573 0 0 Z " fill="#3E3F3F" transform="translate(69,126)"/>
<path d="M0 0 C-0.70125 0.639375 -1.4025 1.27875 -2.125 1.9375 C-5.21574231 4.9755592 -7.34035224 8.51252952 -9.5703125 12.20703125 C-10.04210937 12.79871094 -10.51390625 13.39039063 -11 14 C-11.99 14 -12.98 14 -14 14 C-13.90125535 9.16151219 -13.14102099 6.65495658 -9.8125 3.0625 C-6.58495112 0.07501674 -4.47875211 -0.76466499 0 0 Z " fill="#ABB3BD" transform="translate(225,135)"/>
<path d="M0 0 C0 1.65 0 3.3 0 5 C7.73708326 5.12152487 15.307359 4.84800767 23 4 C20.32870333 6.67129667 18.3339876 6.93641818 14.61816406 7.11352539 C13.32990723 7.10567017 13.32990723 7.10567017 12.015625 7.09765625 C11.08105469 7.09443359 10.14648438 7.09121094 9.18359375 7.08789062 C8.21550781 7.07951172 7.24742188 7.07113281 6.25 7.0625 C5.26644531 7.05798828 4.28289063 7.05347656 3.26953125 7.04882812 C0.84629209 7.03706483 -1.57682273 7.02062684 -4 7 C-4.58203125 5.109375 -4.58203125 5.109375 -5 3 C-3.38441968 0.84589291 -2.74502455 0 0 0 Z " fill="#313334" transform="translate(44,171)"/>
<path d="M0 0 C0.99 0.33 1.98 0.66 3 1 C2.25556641 1.54527344 2.25556641 1.54527344 1.49609375 2.1015625 C0.81675781 2.60429688 0.13742188 3.10703125 -0.5625 3.625 C-1.29597656 4.16769531 -2.02945313 4.71039063 -2.78515625 5.26953125 C-4.81563035 6.85595105 -6.63760511 8.53612797 -8.5 10.3125 C-12.16775284 13.5567248 -15.18017873 13.83088346 -20 14 C-16.98585228 10.638066 -14.06800544 8.90947194 -10 7 C-6.88067479 5.25898128 -4.45915434 3.57625693 -2 1 C-1.34 0.67 -0.68 0.34 0 0 Z " fill="#B2B7B9" transform="translate(92,114)"/>
<path d="M0 0 C0.33 0 0.66 0 1 0 C1.33 10.56 1.66 21.12 2 32 C7.445 30.515 7.445 30.515 13 29 C13.99 29.33 14.98 29.66 16 30 C14.08594633 30.67413211 12.16863974 31.3390332 10.25 32 C9.18265625 32.37125 8.1153125 32.7425 7.015625 33.125 C4 34 4 34 0 34 C0 22.78 0 11.56 0 0 Z " fill="#4A6271" transform="translate(169,137)"/>
<path d="M0 0 C-0.79664063 0.45439453 -0.79664063 0.45439453 -1.609375 0.91796875 C-10.15746541 5.98754792 -13.15894922 12.0113115 -17 21 C-17.66 21 -18.32 21 -19 21 C-17.28303133 12.67119586 -15.15176232 6.77358387 -8.16015625 1.65234375 C-3.59135677 -1.19711892 -3.59135677 -1.19711892 0 0 Z " fill="#494A4B" transform="translate(95,177)"/>
<path d="M0 0 C-0.33 0.66 -0.66 1.32 -1 2 C-3.7632474 2.6730227 -6.4516684 3.21802784 -9.25 3.6875 C-10.01441406 3.82994141 -10.77882812 3.97238281 -11.56640625 4.11914062 C-18.16367437 5.26426229 -22.68141316 4.2041582 -29 2 C-29 1.67 -29 1.34 -29 1 C-28.11699219 1.10699219 -27.23398438 1.21398437 -26.32421875 1.32421875 C-19.02422602 2.05343392 -13.254637 2.04418812 -6.3046875 -0.40625 C-3.77317293 -1.0584368 -2.43762109 -0.85372904 0 0 Z " fill="#BFC6CE" transform="translate(152,110)"/>
<path d="M0 0 C1.68865086 2.53297629 2.86175637 4.79120195 4.0625 7.5625 C5.47419392 10.80789465 5.47419392 10.80789465 7 14 C0.29787234 12.06382979 0.29787234 12.06382979 -2 9 C-2 8.34 -2 7.68 -2 7 C-2.66 6.67 -3.32 6.34 -4 6 C-2.68 4.02 -1.36 2.04 0 0 Z " fill="#151617" transform="translate(211,159)"/>
<path d="M0 0 C0.33 0.66 0.66 1.32 1 2 C1.66 2.33 2.32 2.66 3 3 C-6.39932467 7.10767402 -16.21188157 9.98517913 -26 13 C-26 12.01 -26 11.02 -26 10 C-25.32195312 9.81824219 -24.64390625 9.63648438 -23.9453125 9.44921875 C-21.99333707 8.92202317 -20.04290624 8.38908755 -18.09375 7.8515625 C-16.13870422 7.31343121 -14.18066482 6.78596019 -12.21875 6.2734375 C-7.30744212 4.92726576 -3.75617065 3.63096496 0 0 Z " fill="#B7BDC6" transform="translate(197,128)"/>
<path d="M0 0 C2.12036133 0.94921875 2.12036133 0.94921875 4 2 C0.62883171 3.01323683 -2.74747264 4.00818641 -6.125 5 C-7.07632813 5.28617187 -8.02765625 5.57234375 -9.0078125 5.8671875 C-13.78132437 7.25946179 -17.96955344 8.40650073 -23 8 C-23.33 7.34 -23.66 6.68 -24 6 C-18.18002226 4.6642674 -12.37578731 3.51527876 -6.48046875 2.5625 C-3.97939977 2.12251834 -3.97939977 2.12251834 -1.92578125 0.8125 C-1.29027344 0.544375 -0.65476563 0.27625 0 0 Z " fill="#A8AFB8" transform="translate(155,109)"/>
<path d="M0 0 C1 1 1 1 1.0625 3.5625 C1.041875 4.366875 1.02125 5.17125 1 6 C-1.8125 6.625 -1.8125 6.625 -5 7 C-5.99 6.34 -6.98 5.68 -8 5 C-7.625 3.0625 -7.625 3.0625 -7 1 C-4.51588385 -0.24205807 -2.74800896 -0.14092354 0 0 Z " fill="#D8D8D8" transform="translate(54,170)"/>
<path d="M0 0 C0.99 0.33 1.98 0.66 3 1 C3.1875 3.3125 3.1875 3.3125 3 6 C1.5 7.6875 1.5 7.6875 0 9 C0 9.66 0 10.32 0 11 C-1.32 11 -2.64 11 -4 11 C-4.75 9.375 -4.75 9.375 -5 7 C-3.50594347 4.4601039 -2.09462345 2.09462345 0 0 Z " fill="#7D7D7E" transform="translate(222,146)"/>
<path d="M0 0 C2.05078125 0.03255208 4.1015625 0.06510417 6.15234375 0.09765625 C5.77841654 2.80862852 5.33876748 3.91766092 3.33984375 5.84765625 C1.15234375 7.09765625 1.15234375 7.09765625 -2.84765625 7.09765625 C-2.89019981 5.09810879 -2.88846408 3.09723989 -2.84765625 1.09765625 C-1.84765625 0.09765625 -1.84765625 0.09765625 0 0 Z " fill="#9EA8B2" transform="translate(132.84765625,135.90234375)"/>
<path d="M0 0 C0.66 0.33 1.32 0.66 2 1 C-3.0940919 6.88183807 -3.0940919 6.88183807 -6.875 7.375 C-7.57625 7.25125 -8.2775 7.1275 -9 7 C-9 7.66 -9 8.32 -9 9 C-13.455 9.495 -13.455 9.495 -18 10 C-14.56861368 7.20661013 -10.81217239 5.22264513 -6.875 3.25 C-5.92560547 2.75693359 -5.92560547 2.75693359 -4.95703125 2.25390625 C-3.33560094 1.43802731 -1.66987872 0.71147715 0 0 Z " fill="#3F494F" transform="translate(105,123)"/>
<path d="M0 0 C0.66 0.33 1.32 0.66 2 1 C1.01 2.485 1.01 2.485 0 4 C1.98 3.67 3.96 3.34 6 3 C5.34 3.66 4.68 4.32 4 5 C3.01 5 2.02 5 1 5 C0.773125 5.928125 0.54625 6.85625 0.3125 7.8125 C-1.2088437 11.50719183 -2.46352496 12.32482761 -6 14 C-5.67 13.195625 -5.34 12.39125 -5 11.5625 C-3.93940959 9.30318875 -3.93940959 9.30318875 -4 8 C-4.99 8.495 -4.99 8.495 -6 9 C-4.68775452 5.06326356 -3.08089673 2.77280706 0 0 Z " fill="#2D2D2D" transform="translate(222,137)"/>
<path d="M0 0 C3.96 0.33 7.92 0.66 12 1 C12.33 1.99 12.66 2.98 13 4 C7.25 7 7.25 7 5 7 C4.731875 6.360625 4.46375 5.72125 4.1875 5.0625 C3.11332248 2.66868314 3.11332248 2.66868314 0 2 C0 1.34 0 0.68 0 0 Z " fill="#A2ABB6" transform="translate(34,166)"/>
<path d="M0 0 C0 4.66666667 0 9.33333333 0 14 C-1.32 14.33 -2.64 14.66 -4 15 C-5.45887389 12.08225221 -5.36823233 10.25271895 -5 7 C-3.55430717 4.47761984 -1.85260977 2.23636465 0 0 Z " fill="#535454" transform="translate(12,150)"/>
<path d="M0 0 C-3.11812941 1.70043413 -6.24550253 3.38309295 -9.375 5.0625 C-10.70917969 5.79049805 -10.70917969 5.79049805 -12.0703125 6.53320312 C-13.34648438 7.21479492 -13.34648438 7.21479492 -14.6484375 7.91015625 C-15.43395996 8.33433838 -16.21948242 8.75852051 -17.02880859 9.19555664 C-18.00454834 9.5937561 -18.00454834 9.5937561 -19 10 C-19.66 9.67 -20.32 9.34 -21 9 C-7.92208613 -2.3148953 -7.92208613 -2.3148953 0 0 Z " fill="#5A6267" transform="translate(102,123)"/>
<path d="M0 0 C0 0.99 0 1.98 0 3 C-4.95 3.66 -9.9 4.32 -15 5 C-15 4.01 -15 3.02 -15 2 C-9.87080814 -0.10428384 -5.4389165 -0.21755666 0 0 Z " fill="#BAC1C9" transform="translate(105,161)"/>
<path d="M0 0 C0 0.66 0 1.32 0 2 C-2.76886123 3.00577013 -5.53984104 4.00480147 -8.3125 5 C-9.49102539 5.42925781 -9.49102539 5.42925781 -10.69335938 5.8671875 C-11.45068359 6.13789063 -12.20800781 6.40859375 -12.98828125 6.6875 C-14.03302612 7.06455078 -14.03302612 7.06455078 -15.09887695 7.44921875 C-17 8 -17 8 -20 8 C-20 7.34 -20 6.68 -20 6 C-17.91780951 5.18457569 -15.83420239 4.37276811 -13.75 3.5625 C-12.58984375 3.11003906 -11.4296875 2.65757812 -10.234375 2.19140625 C-6.59764351 0.85178897 -3.86666836 0 0 0 Z " fill="#BBC1C9" transform="translate(127,153)"/>
<path d="M0 0 C0 0.66 0 1.32 0 2 C-0.98395752 2.31022095 -0.98395752 2.31022095 -1.98779297 2.62670898 C-4.950741 3.56192064 -7.91287721 4.49967798 -10.875 5.4375 C-11.90753906 5.76298828 -12.94007813 6.08847656 -14.00390625 6.42382812 C-14.99003906 6.73642578 -15.97617188 7.04902344 -16.9921875 7.37109375 C-17.90339355 7.65911865 -18.81459961 7.94714355 -19.75341797 8.24389648 C-21.99985106 8.94219588 -21.99985106 8.94219588 -24 10 C-23.67 8.68 -23.34 7.36 -23 6 C-21.89140625 5.73445312 -20.7828125 5.46890625 -19.640625 5.1953125 C-18.17702189 4.83879379 -16.71348359 4.48200897 -15.25 4.125 C-14.52039063 3.95097656 -13.79078125 3.77695313 -13.0390625 3.59765625 C-8.64543637 2.51922075 -4.41884973 0 0 0 Z " fill="#B8BEC6" transform="translate(153,145)"/>
<path d="M0 0 C3 1 3 1 4.25 2.75 C5.17574966 5.52724898 4.77341204 7.21571665 4 10 C2.68 9.67 1.36 9.34 0 9 C0 8.67 0 8.34 0 8 C-0.33 7.34 -0.66 6.68 -1 6 C-1 5.67 -1 5.34 -1 5 C-1.99 5.495 -1.99 5.495 -3 6 C-2.625 3.5625 -2.625 3.5625 -2 1 C-1.34 0.67 -0.68 0.34 0 0 Z " fill="#747575" transform="translate(229,146)"/>
<path d="M0 0 C1.98 0 3.96 0 6 0 C6 0.33 6 0.66 6 1 C4.35 1 2.7 1 1 1 C1 1.99 1 2.98 1 4 C2.98 3.34 4.96 2.68 7 2 C5.68 4.31 4.36 6.62 3 9 C3.66 9 4.32 9 5 9 C5 9.99 5 10.98 5 12 C1.125 10.125 1.125 10.125 0 9 C-0.07179964 7.48071962 -0.08392007 5.95832518 -0.0625 4.4375 C-0.05347656 3.61121094 -0.04445313 2.78492188 -0.03515625 1.93359375 C-0.02355469 1.29550781 -0.01195313 0.65742188 0 0 Z " fill="#CECFCF" transform="translate(84,196)"/>
<path d="M0 0 C4.95 0 9.9 0 15 0 C13 2 13 2 10.9765625 2.125 C9.4140478 2.04194274 7.85154765 1.95861125 6.2890625 1.875 C3.72533765 2.01499863 2.1979345 2.71536249 0 4 C0 5.32 0 6.64 0 8 C-0.99 8 -1.98 8 -3 8 C-3 6.02 -3 4.04 -3 2 C-2.01 2 -1.02 2 0 2 C0 1.34 0 0.68 0 0 Z " fill="#8E9297" transform="translate(47,168)"/>
<path d="M0 0 C0.66 0.99 1.32 1.98 2 3 C1.125 5.6875 1.125 5.6875 0 8 C-2.49361571 6.79618552 -4.68143083 5.54571278 -7 4 C-6.34 4 -5.68 4 -5 4 C-5 3.01 -5 2.02 -5 1 C-3.35 0.67 -1.7 0.34 0 0 Z " fill="#959596" transform="translate(103,195)"/>
<path d="M0 0 C4.45152276 0.72482552 8.88678317 1.50574622 13.3125 2.375 C15.16294922 2.72691406 15.16294922 2.72691406 17.05078125 3.0859375 C18.02402344 3.38757813 18.99726562 3.68921875 20 4 C20.33 4.99 20.66 5.98 21 7 C13.65313537 5.78880323 6.92810652 3.71328887 0 1 C0 0.67 0 0.34 0 0 Z " fill="#576A77" transform="translate(22,195)"/>
<path d="M0 0 C2.475 0.495 2.475 0.495 5 1 C5.12375 2.093125 5.2475 3.18625 5.375 4.3125 C5.75464801 8.07381802 5.75464801 8.07381802 8 11 C4.6278951 9.55481219 2.30119637 7.87649547 0 5 C-0.25 2.25 -0.25 2.25 0 0 Z " fill="#545555" transform="translate(9,176)"/>
<path d="M0 0 C2.475 0.495 2.475 0.495 5 1 C6.125 4.75 6.125 4.75 5 7 C3.35 7 1.7 7 0 7 C0 4.69 0 2.38 0 0 Z " fill="#D2D2D2" transform="translate(33,185)"/>
<path d="M0 0 C2.475 0.495 2.475 0.495 5 1 C5 3.64 5 6.28 5 9 C2.525 8.01 2.525 8.01 0 7 C0 4.69 0 2.38 0 0 Z " fill="#989898" transform="translate(22,182)"/>
<path d="M0 0 C0.66 0.33 1.32 0.66 2 1 C2.625 3.0625 2.625 3.0625 3 5 C1.3125 6.625 1.3125 6.625 -1 8 C-3.75 7.1875 -3.75 7.1875 -6 6 C-5.34 4.68 -4.68 3.36 -4 2 C-3.01 2 -2.02 2 -1 2 C-0.67 1.34 -0.34 0.68 0 0 Z " fill="#636363" transform="translate(228,161)"/>
<path d="M0 0 C0 0.99 0 1.98 0 3 C-2.31 3.66 -4.62 4.32 -7 5 C-7 6.32 -7 7.64 -7 9 C-7.66 9 -8.32 9 -9 9 C-9.33 7.68 -9.66 6.36 -10 5 C-4.5 0 -4.5 0 0 0 Z " fill="#B0B7C0" transform="translate(219,122)"/>
<path d="M0 0 C1.98 0 3.96 0 6 0 C5.01 0.495 5.01 0.495 4 1 C4.309375 2.175625 4.309375 2.175625 4.625 3.375 C4.74875 4.24125 4.8725 5.1075 5 6 C4.34 6.66 3.68 7.32 3 8 C2.67 6.68 2.34 5.36 2 4 C1.67 5.65 1.34 7.3 1 9 C0.34 8.67 -0.32 8.34 -1 8 C-1.125 2.25 -1.125 2.25 0 0 Z " fill="#626263" transform="translate(93,181)"/>
<path d="M0 0 C3.125 0.375 3.125 0.375 6 1 C5.67 1.99 5.34 2.98 5 4 C4.34 4 3.68 4 3 4 C2.505 4.495 2.01 4.99 1.5 5.5 C1.005 5.995 0.51 6.49 0 7 C-0.66 7 -1.32 7 -2 7 C-2.125 4.625 -2.125 4.625 -2 2 C-1.34 1.34 -0.68 0.68 0 0 Z " fill="#7F8E9A" transform="translate(68,120)"/>
<path d="M0 0 C0.66 0.33 1.32 0.66 2 1 C2 1.99 2 2.98 2 4 C2.66 4 3.32 4 4 4 C4.33 3.34 4.66 2.68 5 2 C4.67 3.98 4.34 5.96 4 8 C2.35 8 0.7 8 -1 8 C-0.67 7.34 -0.34 6.68 0 6 C-0.66 5.67 -1.32 5.34 -2 5 C-1.34 3.35 -0.68 1.7 0 0 Z " fill="#575757" transform="translate(100,186)"/>
<path d="M0 0 C2 3.75 2 3.75 2 6 C3.32 5.67 4.64 5.34 6 5 C8.125 9.625 8.125 9.625 7 13 C2.80186938 9.25572134 0.92223883 6.1596937 -1 1 C-0.67 0.67 -0.34 0.34 0 0 Z " fill="#B2B9C2" transform="translate(6,159)"/>
<path d="M0 0 C0 0.99 0 1.98 0 3 C-5.445 4.485 -5.445 4.485 -11 6 C-11 5.01 -11 4.02 -11 3 C-9.54293274 2.49632243 -8.08429904 1.99717444 -6.625 1.5 C-5.81289062 1.2215625 -5.00078125 0.943125 -4.1640625 0.65625 C-2 0 -2 0 0 0 Z " fill="#474B4F" transform="translate(164,142)"/>
<path d="M0 0 C0 0.99 0 1.98 0 3 C-5.445 4.485 -5.445 4.485 -11 6 C-11 5.01 -11 4.02 -11 3 C-9.54293274 2.49632243 -8.08429904 1.99717444 -6.625 1.5 C-5.81289062 1.2215625 -5.00078125 0.943125 -4.1640625 0.65625 C-2 0 -2 0 0 0 Z " fill="#484B4F" transform="translate(210,128)"/>
<path d="M0 0 C10.55808656 0.96355353 10.55808656 0.96355353 15 2 C15 2.33 15 2.66 15 3 C13.01432292 2.96744792 11.02864583 2.93489583 9.04296875 2.90234375 C6.79694539 2.91736783 6.79694539 2.91736783 4 4 C1.99124558 3.72428861 -0.01178687 3.39764263 -2 3 C-1.34 2.01 -0.68 1.02 0 0 Z " fill="#ACB9C5" transform="translate(22,192)"/>
<path d="M0 0 C0.33 0 0.66 0 1 0 C1.33 2.31 1.66 4.62 2 7 C-1.82320557 8.42258812 -4.91281305 9.24042276 -9 9 C-9 8.34 -9 7.68 -9 7 C-6.36 6.34 -3.72 5.68 -1 5 C-0.67 3.35 -0.34 1.7 0 0 Z " fill="#3D4D56" transform="translate(142,137)"/>
<path d="M0 0 C1.9375 0.5 1.9375 0.5 4 2 C4.68790422 4.69658452 4.81946464 7.2017019 5 10 C4.34 10 3.68 10 3 10 C0.52653696 7.52653696 0.01686856 6.29238832 -0.1875 2.75 C-0.125625 1.8425 -0.06375 0.935 0 0 Z " fill="#6B6B6B" transform="translate(14,178)"/>
<path d="M0 0 C0.66 0.99 1.32 1.98 2 3 C0.92892883 3.86949317 -0.15745944 4.72014205 -1.25 5.5625 C-1.85328125 6.03816406 -2.4565625 6.51382813 -3.078125 7.00390625 C-5 8 -5 8 -7.234375 7.65234375 C-7.81703125 7.43707031 -8.3996875 7.22179687 -9 7 C-9 6.34 -9 5.68 -9 5 C-8.071875 4.731875 -7.14375 4.46375 -6.1875 4.1875 C-3.23759634 3.08851629 -1.94384814 2.37581439 0 0 Z " fill="#B1B6BF" transform="translate(79,114)"/>
<path d="M0 0 C0.66 0.99 1.32 1.98 2 3 C0.68 5.31 -0.64 7.62 -2 10 C-2.66 9.67 -3.32 9.34 -4 9 C-3.38461538 3.46153846 -3.38461538 3.46153846 -1.4375 1.125 C-0.963125 0.75375 -0.48875 0.3825 0 0 Z " fill="#A7B0B9" transform="translate(81,179)"/>
<path d="M0 0 C-1.06893218 1.03590338 -2.15578488 2.05333942 -3.25 3.0625 C-4.15492188 3.91521484 -4.15492188 3.91521484 -5.078125 4.78515625 C-7 6 -7 6 -9.234375 5.68359375 C-9.81703125 5.45800781 -10.3996875 5.23242188 -11 5 C-4.75324675 -1.58441558 -4.75324675 -1.58441558 0 0 Z " fill="#A4ABB3" transform="translate(215,123)"/>
<path d="M0 0 C0.99 0.33 1.98 0.66 3 1 C3.25 3.3125 3.25 3.3125 3 6 C1 7.8125 1 7.8125 -1 9 C-1.33 7.35 -1.66 5.7 -2 4 C-1.34 4 -0.68 4 0 4 C0 2.68 0 1.36 0 0 Z " fill="#141517" transform="translate(75,200)"/>
<path d="M0 0 C0.99 0.33 1.98 0.66 3 1 C0.36 3.97 -2.28 6.94 -5 10 C-5.33 8.68 -5.66 7.36 -6 6 C-4.78515625 4.296875 -4.78515625 4.296875 -3.0625 2.75 C-2.21365234 1.96882812 -2.21365234 1.96882812 -1.34765625 1.171875 C-0.90292969 0.78515625 -0.45820313 0.3984375 0 0 Z " fill="#BBC2CA" transform="translate(220,136)"/>
<path d="M0 0 C2.75 2.4375 2.75 2.4375 5 5 C2 6 2 6 -1.1875 4.5625 C-2.115625 4.046875 -3.04375 3.53125 -4 3 C-4 2.34 -4 1.68 -4 1 C-2.3125 0.1875 -2.3125 0.1875 0 0 Z " fill="#313131" transform="translate(80,208)"/>
<path d="M0 0 C1.32 0.33 2.64 0.66 4 1 C3.67 2.65 3.34 4.3 3 6 C2.01 6.33 1.02 6.66 0 7 C-0.66 6.67 -1.32 6.34 -2 6 C-1.34 4.02 -0.68 2.04 0 0 Z " fill="#535353" transform="translate(92,201)"/>
<path d="M0 0 C0.66 0.33 1.32 0.66 2 1 C1.67 2.98 1.34 4.96 1 7 C3.97 7.495 3.97 7.495 7 8 C7 8.33 7 8.66 7 9 C4.69 9 2.38 9 0 9 C0 7.68 0 6.36 0 5 C-0.66 5 -1.32 5 -2 5 C-1.125 1.125 -1.125 1.125 0 0 Z " fill="#848585" transform="translate(89,200)"/>
<path d="M0 0 C2.72288471 0.23075294 5.31300291 0.55618719 8 1 C9.33296983 1.19006699 10.66627745 1.37778893 12 1.5625 C12.99 1.706875 13.98 1.85125 15 2 C15 2.33 15 2.66 15 3 C13.10424749 3.02721176 11.20838021 3.04649136 9.3125 3.0625 C7.72888672 3.07990234 7.72888672 3.07990234 6.11328125 3.09765625 C3.27589738 3.00865425 0.7561081 2.64939838 -2 2 C-1.34 1.34 -0.68 0.68 0 0 Z " fill="#C2C8D0" transform="translate(34,179)"/>
<path d="M0 0 C1.98 0 3.96 0 6 0 C5.67 1.32 5.34 2.64 5 4 C3.35 4.33 1.7 4.66 0 5 C0 3.35 0 1.7 0 0 Z " fill="#D1D2D2" transform="translate(64,170)"/>
<path d="M0 0 C1.65 0.33 3.3 0.66 5 1 C4.625 3.4375 4.625 3.4375 4 6 C3.01 6.495 3.01 6.495 2 7 C1.67 6.01 1.34 5.02 1 4 C0.01 5.485 0.01 5.485 -1 7 C-1 6.34 -1 5.68 -1 5 C-1.66 4.67 -2.32 4.34 -3 4 C-2.34 4 -1.68 4 -1 4 C-0.67 2.68 -0.34 1.36 0 0 Z " fill="#979898" transform="translate(228,158)"/>
<path d="M0 0 C0.99 1.32 1.98 2.64 3 4 C2.01 4.33 1.02 4.66 0 5 C-0.66 5.66 -1.32 6.32 -2 7 C-2.99 6.01 -3.98 5.02 -5 4 C-3 1 -3 1 0 0 Z " fill="#696B6C" transform="translate(70,128)"/>
<path d="M0 0 C2.375 0.3125 2.375 0.3125 5 1 C7 4 7 4 7 8 C6.34 8 5.68 8 5 8 C4.67 7.01 4.34 6.02 4 5 C3.34 4.67 2.68 4.34 2 4 C2 3.34 2 2.68 2 2 C1.34 2 0.68 2 0 2 C0 1.34 0 0.68 0 0 Z " fill="#CBCCCD" transform="translate(97,182)"/>
<path d="M0 0 C0.33 0 0.66 0 1 0 C1.33 3.63 1.66 7.26 2 11 C1.01 11.495 1.01 11.495 0 12 C-1.1898306 9.6203388 -1.13349966 8.08514265 -1.125 5.4375 C-1.12886719 4.22900391 -1.12886719 4.22900391 -1.1328125 2.99609375 C-1 1 -1 1 0 0 Z " fill="#B4B5B6" transform="translate(12,152)"/>
<path d="M0 0 C0.33 0 0.66 0 1 0 C1 1.98 1 3.96 1 6 C2.65 5.67 4.3 5.34 6 5 C5.67 5.61875 5.34 6.2375 5 6.875 C3.85806765 8.91018344 3.85806765 8.91018344 4 11 C3.01 10.67 2.02 10.34 1 10 C-0.1577506 6.52674819 -0.06866652 3.63932552 0 0 Z " fill="#AFB0B1" transform="translate(216,155)"/>
<path d="M0 0 C1.32 0.66 2.64 1.32 4 2 C4 3.32 4 4.64 4 6 C2.68 6 1.36 6 0 6 C-1.125 2.25 -1.125 2.25 0 0 Z " fill="#989899" transform="translate(218,151)"/>
<path d="M0 0 C3.7952131 1.49097658 5.61042731 3.75700849 8 7 C7.34 7.66 6.68 8.32 6 9 C3.65057518 6.86415925 2.30420623 4.88788523 1 2 C0.67 1.34 0.34 0.68 0 0 Z " fill="#191D1E" transform="translate(75,128)"/>
<path d="M0 0 C1.75098126 2.62647188 3.38731308 5.28775382 5 8 C2.0625 7.1875 2.0625 7.1875 -1 6 C-1.33 5.01 -1.66 4.02 -2 3 C-1.34 3 -0.68 3 0 3 C0 2.01 0 1.02 0 0 Z " fill="#2E2E2E" transform="translate(213,165)"/>
<path d="M0 0 C2.97 0.33 5.94 0.66 9 1 C5.23312136 2.88343932 3.97041037 3.22057835 0 3 C0 2.01 0 1.02 0 0 Z " fill="#B1B8C1" transform="translate(157,107)"/>
<path d="M0 0 C0.66 0.33 1.32 0.66 2 1 C-0.475 4.465 -0.475 4.465 -3 8 C-3.66 6.68 -4.32 5.36 -5 4 C-3 2 -3 2 0 0 Z " fill="#4B4B4C" transform="translate(219,143)"/>
<path d="M0 0 C0.66 0.33 1.32 0.66 2 1 C-0.25283313 4.31996462 -2.80800833 6.58443874 -6 9 C-4.68775452 5.06326356 -3.08089673 2.77280706 0 0 Z " fill="#1F2021" transform="translate(222,137)"/>
<path d="M0 0 C2.475 0.99 2.475 0.99 5 2 C1.46588679 4.12046792 -1.94393835 4.53199289 -6 5 C-5.01 4.34 -4.02 3.68 -3 3 C-1.98131338 2.01904252 -0.97648017 1.02297922 0 0 Z " fill="#B5BCC5" transform="translate(238,114)"/>
<path d="M0 0 C0.99 0.33 1.98 0.66 3 1 C0.6875 3.0625 0.6875 3.0625 -2 5 C-2.99 4.67 -3.98 4.34 -5 4 C-3.36587557 2.29159719 -2.13093906 1.06546953 0 0 Z " fill="#B8BCBF" transform="translate(92,114)"/>
<path d="M0 0 C0.8353125 0.37125 0.8353125 0.37125 1.6875 0.75 C1.3575 1.41 1.0275 2.07 0.6875 2.75 C-1.96110427 3.34355614 -4.60447322 3.49209269 -7.3125 3.75 C-2.88173077 -0.31153846 -2.88173077 -0.31153846 0 0 Z " fill="#B6BEC7" transform="translate(150.3125,109.25)"/>
<path d="M0 0 C0.66 0.99 1.32 1.98 2 3 C1.34 3.66 0.68 4.32 0 5 C-2.475 4.01 -2.475 4.01 -5 3 C-5 2.34 -5 1.68 -5 1 C-3.35 0.67 -1.7 0.34 0 0 Z " fill="#5F5F60" transform="translate(103,195)"/>
<path d="M0 0 C1.98 0.495 1.98 0.495 4 1 C3.42655063 3.86724686 3.1385485 4.8614515 1 7 C1 5.66666667 1 4.33333333 1 3 C0.34 3 -0.32 3 -1 3 C-0.67 2.01 -0.34 1.02 0 0 Z " fill="#686869" transform="translate(219,158)"/>
<path d="M0 0 C-3.08888522 2.05925681 -3.70935927 2.2390374 -7.1875 2.125 C-9.0746875 2.063125 -9.0746875 2.063125 -11 2 C-7.00042393 -0.06874624 -4.43559483 -1.37656391 0 0 Z " fill="#CED3D9" transform="translate(64,132)"/>
<path d="M0 0 C0.66 0.99 1.32 1.98 2 3 C1.01 3 0.02 3 -1 3 C-1.33 3.99 -1.66 4.98 -2 6 C-2.99 6 -3.98 6 -5 6 C-3.63016497 2.83884224 -3.0109362 2.0072908 0 0 Z " fill="#ABAEB4" transform="translate(68,126)"/>
<path d="M0 0 C1.98 0 3.96 0 6 0 C6 0.66 6 1.32 6 2 C5.34 2 4.68 2 4 2 C3.67 2.99 3.34 3.98 3 5 C2.67 4.01 2.34 3.02 2 2 C1.34 2 0.68 2 0 2 C0 1.34 0 0.68 0 0 Z " fill="#BEBFC0" transform="translate(223,145)"/>
<path d="M0 0 C3.24271506 0.5590888 4.93057424 1.4132178 7 4 C7 4.66 7 5.32 7 6 C3.63279613 4.60667426 2.0140476 3.0210714 0 0 Z " fill="#5E6468" transform="translate(72,128)"/>
<path d="M0 0 C2.125 0.375 2.125 0.375 4 1 C3.01 1.33 2.02 1.66 1 2 C1 3.32 1 4.64 1 6 C0.34 6 -0.32 6 -1 6 C-1.625 4.125 -1.625 4.125 -2 2 C-1.34 1.34 -0.68 0.68 0 0 Z " fill="#C0C5CB" transform="translate(211,125)"/>
</svg>
